/* XPM */
static char *f3acc1dc659949f1d5bb9948611d34b0qr9Bfs0qkk2Vf7Ur[] = {
/* columns rows colors chars-per-pixel */
"64 64 210 2 ",
"   c #151515",
".  c #181717",
"X  c #1A1816",
"o  c #1E1E1E",
"O  c #231E16",
"+  c #211E1C",
"@  c #24211D",
"#  c #2D2519",
"$  c #2B251D",
"%  c #382A17",
"&  c #30261B",
"*  c #352A1C",
"=  c #3E311C",
"-  c #221F20",
";  c #262322",
":  c #2A2623",
">  c #2C2925",
",  c #2E2C29",
"<  c #332C24",
"1  c #382E24",
"2  c #332E29",
"3  c #353026",
"4  c #3B3225",
"5  c #35312C",
"6  c #3B342B",
"7  c #3E382E",
"8  c #3F2832",
"9  c #353431",
"0  c #3E3730",
"q  c #3D3833",
"w  c #3D3C3B",
"e  c #412F17",
"r  c #47341B",
"t  c #4C391E",
"y  c #443523",
"u  c #433925",
"i  c #4B3B24",
"p  c #41362B",
"a  c #443A2C",
"s  c #483D2F",
"d  c #513E25",
"f  c #433C33",
"g  c #493F32",
"h  c #413F3D",
"j  c #743F39",
"k  c #4D422E",
"l  c #554123",
"z  c #5B4523",
"x  c #5D4825",
"c  c #54442A",
"v  c #5B462A",
"b  c #5C4B2C",
"n  c #474037",
"m  c #4C4334",
"M  c #44413D",
"N  c #4C443A",
"B  c #524633",
"V  c #544935",
"C  c #5C4C34",
"Z  c #50463B",
"A  c #53493D",
"S  c #5A4D3C",
"D  c #5D5134",
"F  c #5D513B",
"G  c #624824",
"H  c #674C25",
"J  c #624D2C",
"K  c #65522E",
"L  c #6B522C",
"P  c #74572D",
"I  c #7B5B2C",
"U  c #634F34",
"Y  c #645235",
"T  c #6A5534",
"R  c #6A5737",
"E  c #6B5A34",
"W  c #63543C",
"Q  c #6B5C3B",
"!  c #715630",
"~  c #735B34",
"^  c #7C5E32",
"/  c #766337",
"(  c #7D6135",
")  c #75623D",
"_  c #7A6439",
"`  c #7C693D",
"'  c #494846",
"]  c #554C41",
"[  c #594E43",
"{  c #504F4E",
"}  c #5C5144",
"|  c #50504E",
" . c #5D5449",
".. c #5A5856",
"X. c #635545",
"o. c #665945",
"O. c #6B5B45",
"+. c #635749",
"@. c #665949",
"#. c #6B5C4A",
"$. c #725F43",
"%. c #715F4A",
"&. c #635D53",
"*. c #6A5E50",
"=. c #6E614B",
"-. c #746345",
";. c #796645",
":. c #7A6A44",
">. c #73634D",
",. c #79664E",
"<. c #7B6A4C",
"1. c #7C704A",
"2. c #6D6151",
"3. c #64615D",
"4. c #6F6658",
"5. c #756551",
"6. c #796751",
"7. c #7C6A53",
"8. c #786A57",
"9. c #7F7056",
"0. c #6B6863",
"q. c #7A7163",
"w. c #74726D",
"e. c #727270",
"r. c #7C7A77",
"t. c #87642F",
"y. c #90692D",
"u. c #806335",
"i. c #896934",
"p. c #846B39",
"a. c #916F39",
"s. c #83713E",
"d. c #8B723D",
"f. c #947132",
"g. c #94753A",
"h. c #97773A",
"j. c #9B793B",
"k. c #836D45",
"l. c #826E4B",
"z. c #847245",
"x. c #8A7344",
"c. c #8B7B47",
"v. c #85744C",
"b. c #8B744B",
"n. c #8E7B4C",
"m. c #967A42",
"M. c #947C43",
"N. c #937C4B",
"B. c #826E54",
"V. c #806F58",
"C. c #857255",
"Z. c #897556",
"A. c #8D7954",
"S. c #867459",
"D. c #8A7559",
"F. c #8E795A",
"G. c #927C53",
"H. c #947D5C",
"J. c #B86F50",
"K. c #907E60",
"L. c #B38A3D",
"P. c #8B804D",
"I. c #99844B",
"U. c #968255",
"Y. c #9B8553",
"T. c #95815C",
"R. c #9A825D",
"E. c #9E895B",
"W. c #A38648",
"Q. c #A28B4C",
"!. c #B58F41",
"~. c #A7904D",
"^. c #B7974B",
"/. c #A28B52",
"(. c #A48B59",
"). c #A49154",
"_. c #AB9454",
"`. c #A9945B",
"'. c #AD9A5D",
"]. c #B49954",
"[. c #B59C54",
"{. c #B39C5B",
"}. c #BBA557",
"|. c #9B8561",
" X c #998562",
".X c #8A8479",
"XX c #A38A63",
"oX c #A68D66",
"OX c #A98E67",
"+X c #A28F6B",
"@X c #AB9269",
"#X c #B19D61",
"$X c #B3986E",
"%X c #B79C71",
"&X c #B9A764",
"*X c #C39E4A",
"=X c #C5A958",
"-X c #C3AE62",
";X c #C2AD6A",
":X c #CBB563",
">X c #CDBA66",
",X c #D2BB66",
"<X c #E4A672",
"1X c #DCC667",
"2X c #DECC76",
"3X c #E5D06E",
"4X c #E2CE71",
"5X c #E5D579",
"6X c #868584",
"7X c #928F89",
/* pixels */
"8 8 8 8 8 8 8 8 8 8 8 8 8 8 8 8 8 8 8 8 8 8 8 8 8 8 8 j 8 8 j j j j j j j j j j j j j j j j 8 j j j j j j j j j j j j j j j j j ",
"8 8 8 8 8 <X<XJ.J.J.J.j j j j j j j j j j j j j j j 8 8 8 j j j 8 j j j j j j j j j j j j j 8 8 j j j j j j j j j j j j j j j j ",
"8 8 8 <X<X<XJ.J.J.j j j j j j j j j j j j j j j j j j 8 j j j 8 j j j j j j j j j j j j j j j 8 8 j j j j j j j j j j j j j 8 8 ",
"8 8 <X<XJ.J.J.j j j j j j j j j j j j j j j j j j j j 8 j 0.J O.D.4 < |.|.H.} w.j j j j j j j j 8 j j j j j j j j j j j 8 8 8 j ",
"8 <X<XJ.J.J.j j j j j j j j j j j j j j j j j j j j j q.S S.R C.|.a g XX|.|.H.Z.4 =.&.j j j j j 8 8 j j j j j j j j j 8 8 j j j ",
"8 <XJ.J.J.j j j j j j j j j j j j j j j j j j j j j r.# ! B.b.|.@XO.X.$XoX|.|.F.Z K.C.Z j j j 8 8 8 8 8 8 j j j j j 8 8 j j j j ",
"8 J.J.J.j j j j j j j j j j j j j j j j j j j j  .#.C.1 & L I.OX@XH.C.%XoXoXoXT.4 D.6.#.c 8 8 8 j j j j 8 8 8 j j j 8 j j j j j ",
"8 J.J.j j j j j j j j j j j j j j j j j j r.} >.7.7.D.W < 4 p.oXOXR.=.@XoXXXOXO.s >.#.$.t.[ j j j j j j j j 8 8 8 8 8 j j j j j ",
"8 J.j j j j j j j j j j j j j j j j j j 0.5.6.D.F.D.B.>.< 4 v <.H.|.+X|.T.|.Z.1 V >.O.^ ,.#..Xj j j j j j j j j 8 8 8 j j j j j ",
"8 j j j j j j j j j j j j j j j j j j j > 7.>.S.F.H.F.C.$ 4 i C D.C.Z.H.oXXXm 1 S ;.P >.7.7.} j j j j j j j j j j 8 8 j j j j j ",
"8 j j j j j j j j j j j j j j j j j j j $ o.>.>.B.D.F.Z.1 4 y Y.H.R.F.XX@XoXoXm a W.>.O.,.B.6.&.j j j j j j j j j 8 8 j j j j j ",
"8 j j j j j j j j j j j j j j j j j j q 1 g 7.7.7.7.H.D.6 1 V '.H.R.H.H.R.H.XXXXI ~ C.7.7.#.>.~ .Xj j j j j j j j j 8 j j j j j ",
"8 j j j j j j j j j j j j j j j j j e.@ 1 1 >.F.Z.,.F.D.s 1 |.G.E.R.H.H.H.H.H.T.j.W Z.F.C.k.j.L.f.j j j j j j j j j 8 j j j j j ",
"8 8 j j j j j j j j j j j j j j j j N g $ 1 V C.S.,.B.C.< F.H.H.Y.H.H.H.|.H.H.A.p.<.A.b.].*Xj.x.<.3.j j j j j j j j 8 j j j j j ",
"j 8 8 8 j j j j j j j j j j j j J k S X.Z > < S.,.6.Z.X.V H.H.H.Q.m.H.H.T.|.H.W.T.W _.,X^.N.C.l.>.m j j j j j j j j 8 8 j j j j ",
"j j j 8 8 j j j j j j j j j j N ~ y.h.) Q c # 4 #.H.O.< C.C.H.H.N.a.N.H.R.XX(.[.].,X:X*Xb.A.C.>.>.S j j j j j j j j 8 8 8 j j j ",
"j j j j 8 8 8 j j j j j j j f N S #._ j.W.4XI.@ > < $ Z C.C.F.H.v.b.'.Y.G._.5X5X-X/ n.h.H.C.C.>.o.Z h j j j j j j 8 8 j 8 8 j j ",
"j j j j j j 8 8 j j j j 8 ' Z Z A A C R ,.n.`.#.@ > @ 7.B.C.C.F.Z.Y.Y.5X5X>X#XU.A.k ( k.Z.C.7.#.O.g < j j j j j 8 8 j j j 8 8 j ",
"j j j j j j j 8 8 8 8 8 8 g A Z A [ Y Y >.$.u.K.m @ X.C.B.C.C.D.G.#XE.2X{.R.T.R.H.W H D.Z.7.7.#.#.p 4 3.j j j 8 8 j j j j j 8 8 ",
"j j j j j j j j j 8 8 j e.[ Z } S o.^ W o.-.( #.S.1 5.7.B.B.D.H.G._.;X-XT.|.H.F.H.O.~ S C.C.o.O.S 6 6 2 j j 8 8 j j j j j j j j ",
"j j j j j j j j j j 8 j M Z } o.o.X.m.#.O.%.^ >.7.} #.7.C.C.C.H.Y./.2XG.F.F.Z.Z.,.n.b < a 6.S o.m 6 6 M 8 8 8 j j j j j j j j j ",
"j j j j j j j j j j 8 j f Z } X.o.A.<.O.O.>.^ B.6.>.#.7.C.C.C.R.{.:XY.A.C.B.6.>.#.<.H @ < < p g 4 1 > 6X8 8 j j j j j j j j j j ",
"j j j j j j j j j j 8 w.B ] } X.X.( o.O.O.#.M.B.6.>.>.7.7.C.F.R.2X(.C.Z.D.F.5.5.6.o.a t O > O @ @ @ 4 N j 8 j j j j j j j j j j ",
"j j j j j j j j j j 8 q d ] } X.[ ^ o.#.>.O.).l.6.#.6.7.C.C.E.{.'.A.C.B.7.>.>.>.#.7.7.i 4 O $ a } #.S m ..8 8 j j j j j j j j j ",
"j j j j j j j j j j 8 f B V } X.Y t.X.o.>.O.O.P.<.} B.6.7.B.`.&XR.,.,.>.#.5.S.7.7.7.5.g z < 4 7.#.o.o.A f j 8 j j j j j j j j j ",
"j j j j j j j j j 8 M n N B [ C ! R k.o.O.#.>.6.n.V V.>.C.n.>XY.Z.>.>.7.7.7.7.7.6.>.#.S J O g 6.#.@.o.X.l w.8 8 j j j j j j j j ",
"j j j j j j j j 8 8 7 N N v A L [ X.1.X.#.O.5.6.%.P l.7.C.&X~.Z.6.#.7.7.7.7.7.7.6.#.#.Z * O 1 6.#.X.X.K S N j 8 j j j j j j j j ",
"j j j j j j j 8 8 ' n ] N C ( C [ X.U X.@.#.>.5.>.a I.Q.{.1XY.,.>.>.7.7.7.7.7.#.5.o.#.4 & # 1 X.#.X._ W X.X.3.8 8 j j j j j j j ",
"j j j j j j 8 8 J.2 f n A N h.] [ } Y S X.#.>.>.X.f S }.:X=XC.C.>.5.7.7.5.#.#.o.#.#.@.$ O 4 G J N.c.o.@.} U l 8 8 8 8 j j j j j ",
"j j j j j 8 8 J.j > [ N n W Y A } } W Y } #.5.#.a m k }.3Xb.6.>.#.>.7.5.#.#.#.#.#.#.m O 1 6.B :.W o.X.C c y @ 8 j j 8 8 j j j j ",
"j j j j 8 8 J.j j o o f } P.m A @.X.X.~ #.5.>.m m W b 4X[.,.>.>.%.>.>.5.#.#.#.#.#.>.+ N #.>.V.D s } l p < < @ 8 j j j 8 8 8 j j ",
"j j j 8 8 j j j j 9 @ @ @ _ N [ A +.#.x.,.5.Z m O.` 2X=X;.>.5.#.#.>.#.#.#.#.#.#.#.S 4 #.#.6.C.4 ^ x p 4 2 < @ j j j j 8 8 8 8 8 ",
"j j j 8 j j j j j ' ; ; ; = r 3 m =.8.~ -.V S F c.:Xd.M.#.#.#.#.#.#.#.#.#.#.#.@.5.2 } #.#.6.6.6 I p 2 7 2 7 = 8 j j 8 8 j j j j ",
"j 8 8 8 j j j j j ..o + + @ = @ : 6 C Q J F ) ~.^.k.<.k.o.#.#.#.#.#.#.#.#.#.#.#.#.> #.>.>.>.C.J * 7 4 g m c t.8 8 8 8 j j j j j ",
"8 8 8 j j j j j j X @ @ 1 : O x 4 u ` z.:X}.1X=XA.>.o.:.[ @.#.#.#.#.#.@.#.@.@.5.a V =.5.6.6.k.L 3 4 m S b f.J j j 8 8 j j j j j ",
"j j 8 8 j 8 j j j ; > > 0 N m ` :X=X[.Q.Q.h.!.O.C.o.O.O.} [ @.#.#.@.#.#.@.@.#.5.< >.>.S.D.v.^.c k W Q p.f.C 7 j j 8 8 j j j j j ",
"j j j 8 j j 8 8 3.> > < < a O.M.=Xb.W k u u W.o.X.@.W S @.} ] @.#.@.#.o.=.#.6.o.D `.).~.}.5X1Xh.p.h.L.u.B a 3 j j j 8 j j j j j ",
"j j j 8 8 j j j w 2 > < s m Q =XG.9.S.m @ B _.o.} } C S } @.[ ] } } @.+.@.>.T.U.[./.E.U.v.A.z.[.p.d.h.m m 6 > j j j 8 j j j j j ",
"j j j j 8 8 j j > < < 2 4 B ~.N.S.>.S.o.X X.:.v.} } b } } } } ] [ } @.=.7.G.].~ ,.S.6.6.>.=.#.m / > a L i 4 : j j j 8 8 j j j j ",
"j j j j j 8 8 j 9 2 4 4 Z R =X<.>.@.X.=.$ @.} Y.[ } ) } ] [ } [ [ X.>.>.N.=XE < =.>.X.X.X.X.X.Z t @ 7 3 i t p j j 8 8 8 8 j j j ",
"j j j j j j 8 8 6X4 7 4 Y ^.` =.} +.} } 7 } } S L S ;.} } [ +.} [ #.=.N.=Xp.1 6 } #.] } A A A b @ + 2 5 5 ; M j j 8 8 j 8 j j j ",
"j j j j j j 8 8 J.a x t.h.d.C @.[ [ } f N ]  .] S u.W } } } } +.X.=.).&XA.E < 7 } A A A A N :.Z . . > 2 > o j j j 8 8 8 8 8 j j ",
"j j j j j j 8 J.j w.a i.D E k #.} ]  .@ } ] } A ] S p.} [ } [ +.=.#X-X_.n.x @ f [ ] A A A m 1.6 . . @ + X . j j 8 8 j j 8 8 8 8 ",
"j j j j j 8 8 j j 7Xt.D V J 1 N 2.[ } X @.] N n n [ X.x.] } =.=._.'.O.V Y I + f A Z N N Z V O.o o ; o @ o h j j 8 j j j j j j 8 ",
"j j j j j 8 j j j 7Xk a k u < > f 8.q 2 ] ] ] N n N A R d.X.<.=XM.F } Z n G X n A N N N Z A v o ; ; ; @ ; j j 8 8 j j j j j j j ",
"j j j j 8 8 j j j 6X6 p i < > > : f X f ] [ } ] n n A } x.,X>Xk.O.A f f N 3 = n N N n N ] ] J @ ; ; : > ' j j 8 j j j j j j j j ",
"j j j 8 8 8 j j j j : d > 2 > : : ; . ] N ] } [ n n ] X.$.,X-.X.} Z f A N 6 r f n N n A ] +.t ; ; : > > | j 8 8 j j j j j j j j ",
"j j 8 8 8 8 8 8 j j 4.i 2 > : : 2 @ X  .f N ] [ ] ] } >.N.z.#.A m N N Z ] A % f N A N ]  .n = ; : : > > j 8 8 j j j j j j j j j ",
"8 8 8 J.J.J.8 8 8 j j : 3 2 2 < 3 o . f N n n N A ] } <._.o.] N A A N N } W # 5 [ [ ] } 2.y l $ > > > , j 8 j j j j j j j j j j ",
"8 J.J.j j j j j j 8 j e.5 2 2 2 2 .   o @ ; f ] N A X.Q.l.X.A A A A N A } Q o < A ] X.z.c * * v 1 > 2 8 8 8 j j j j j j j j j j ",
"J.j j j j j j j j 8 8 8 w q 5 5 : + o o - + o o 6 n k.m.o.} ] ] ] N ] ] ] E o e x s.E $ ; ; ; : l 4 @ j 8 8 j j j j j j j j j j ",
"j j j j j j j j j 8 8 J.J.9 , : 2 2 + o ; ; @ ; ; * j.u m } }  . . .} *.2._ .   X X X @ ; ; : > 2 P &.j j 8 8 j j j j j j j j j ",
"j j j j j j j j j j 8 J.j j > 2 2 6 ; o > : : : > = L 3 + : f @.5.8.2.7 X * # ; : o o X @ ; > > 2 4 j j j j 8 8 j j j j j j j j ",
"j j j j j j j j j j 8 j j j ' q 2 f o o > > > > 2 v i $ : ; ; o 3 2 X o +   r > > + X + X ; 2 5 > j j j j j j 8 8 j j j j j 8 8 ",
"j j j j j j j j j j 8 j j j j 9 5 2 - o , , : : > G < @ > @ ; ; ; ; ; + +   $ i ; ; + X - o ; > j j j j j j j j 8 8 j j j 8 8 j ",
"j j j j j j j j j j 8 j j j o o { , . o 2 > > > : z , X > : o ; ; ; ; ; @ . > K : : > + + o ' j j j j j j j j j j 8 8 j 8 8 j j ",
"j j j j j j j j j j 8 j j o o o o o o o 2 , > > G i > X > : ; ; ; ; ; : o : : i & > 2 5 X o o j j j j j j j j j j j 8 8 8 j j j ",
"j j j j j j j j j j 8 j 8 o o o o o o ..1 1 y l c Q , o : > ; ; > ; : > o : , r : , 5 2 o o o o j j j j j j j j j j j 8 8 j j j ",
"j j j j j j j j j 8 8 j j o o o o o o o ] 1 4 5 > K > ; ; , : 2 ; > > > @ ; 5 r 5 > 9 o o o o o j j j j j j j j j j j j 8 8 j j ",
"j j j j j j j j j 8 8 8 j o o o o o o o o o 9 , 5 i 1 ; . 9 > , > ; > > o X @ n o o o o o o o o j j j j j j j j j j j j j 8 8 j ",
"j j j j j j j j 8 8 8 8 8 8 o o o o o o o o o o o o o o o w ; : o o o o o o o o o o o o o o o j j j j j j j j j j j j j j 8 8 8 ",
"j j j j j j j 8 8 j j j j 8 8 8 o o o o o o o o o o o o o o o o o o o o o o o o o o o 8 8 8 8 8 j j j j j j j j j j j j 8 8 j 8 ",
"j j j j j j 8 8 j j j j j j j j j o o o o o o o o o o o o o o o o o o o o o o o o o o j j j j j j j j j j j j j j j j 8 8 j j 8 ",
"8 8 8 8 8 8 8 j j j j j j j j j j j j j j j j o o o o o o o o o o o o o o j j j 8 8 8 8 8 8 8 8 8 8 8 8 8 8 8 8 8 8 8 8 8 8 8 8 "
};
