/* XPM */
static char *_ce35dd65dc840b8dd2a2540c9a3c6e0SxbM4IysSNfj7bPT[] = {
/* columns rows colors chars-per-pixel */
"64 64 7 1 ",
"  c #252525",
". c #2F283A",
"X c #3F3656",
"o c gray29",
"O c gray34",
"+ c #425B79",
"@ c #418EB0",
/* pixels */
"                                                                ",
"                                                                ",
"OOOOOOOOOO  OOOOOOOOOOOOOOOOOOOOOOOOOOOOOO  OOOOOOOOOOOOOOOOOOOO",
"OOOOOOOOOO  OOoooooooooooOOOOOOOOOOOOOOOOO  OOOOOOOOOOOOOOOOOOOO",
"OOOOOOOO  OOOOoooooooooooOOOOOOOOOOOOOOO  OOOOOOOOOOOOOOOOOOOOOO",
"OOOOOOOO  OOOOOOOOOOOOOOOOOOOOOOOOOOOOOO  OOOOOOOOOOOOOOOOOOOOOO",
"OOOOOO  OOOOOOOOOOOOOOOOOOOOOOOOOOOOOO  OOOOOOOOOOOOOOOOOOOOOOOO",
"OOOOOO  OOOOOOOOOOOOOOOOOOOOOOOOOOOOOO  OOOOOOOooOOOOOOOOOOOOOOO",
"OOOO  OOOOOOOOOOOOOOOOOOOOOOOOOOOOOO  OOOOOOOOOoooooooooooOOOOOO",
"OOOO  OOOOOOOOOOOOOOOOOOOOOOOOOOOOOO  OOOOOOOOOOOoooooooooOOOOOO",
"OO  OOOOOOOOOOOOOOOOOOOOOOOOOOOOOO  OOOOOOOOOOOOOOOOOOOOOOOOOOOO",
"OO  OOOOOOOOOOOOOOOOOOOOOOOOOOOOOO  OOOOOOOOOOOOOOOOOOOOOOOOOOOO",
"  OOOOOOOOOOOOOOOOOOOOOOOOOOOOOO  OOOOOOOOOOOOOOOOOOOOOOOOOOOOOO",
"  OOOOOOOOOOOOOOOOOOOOOOOOOOOOOO  OOOOOOOOOOOOoooooOOOOOOOOOOOOO",
"OOOOOOOOOOOOOOOOOOOOOOOOOOOOOO  OOOOOooooooooooooooOOOOOOOOOOO  ",
"OOOOOOOOOOOOOOOOOOOOOOOOOOOOOO  OOOOOooooooooooOOOOOOOOOOOOOOO  ",
"                    @@@@@@@@@@@@@@@@@@@@@@@@                    ",
"                    @@@@@@@@@@@@@@@@@@@@@@@@                    ",
"OOOOOOOOOOOOOO  OO@@@@XXXXXXXXXXXXXXXXXXXX@@@@  OOOOOOOOOOOOOOOO",
"OOOOOOOOOOOOOO  OO@@@@XXXXXXXXXXXXXXXXXXXX@@@@  OOOOOOOOOOOOOOOO",
"oooOOOOOOOOO  OOOo@@XX@@@@@@@@@@@@@@@@@@@@XX@@OOOOOOOOOOOOOOOOOO",
"oooooooooOOO  OOOo@@XX@@@@@@@@@@@@@@@@@@@@XX@@OOOOOOOOOOOOOOOOoo",
"OOoooooooO  OOOOOO@@++@@XXXX@@XXXX@@XXXX@@++@@OOOOOOOOOOOOOOOOoo",
"OOOOOOOOOO  OOOOOO@@++@@XXXX@@XXXX@@XXXX@@++@@OOOOOOOOOOOOOOOOOO",
"OOOOOOOO  OOOOOOOO@@++@@++++@@++++@@++++@@++@@OOOOOOOOOOOOOOOOOO",
"OOOOOOOO  OOOOOOOO@@++@@++++@@++++@@++++@@++@@OOOOOoooooooOOOOOO",
"OOOOOO  OOOOOOOOOO@@++@@@@@@@@@@@@@@@@@@@@++@@OOOOOoooooooOOOOOO",
"OOOOOO  OOOOOOOOOO@@++@@@@@@@@@@@@@@@@@@@@++@@OOOOOOOOOOOOOOOOOO",
"OOOO  OOOOOOOOOOOO@@@@XXXXXXXXXXXXXXXXXXXX@@@@OOOOOOOOOOOOOOOOOO",
"OOOO  OOOOOOOOOOOO@@@@XXXXXXXXXXXXXXXXXXXX@@@@OOOOOOOOOOOOOOOOOO",
"OO  OOOOOOOOOOOOOO++@@@@@@@@@@@@@@@@@@@@@@@@++OOOOOOOOOOOOOOOOOO",
"OO  OOOOOOOOOOOOOO++@@@@@@@@@@@@@@@@@@@@@@@@++OOOOOOOOOOOOOOOOOO",
"                  @@++++++++@@@@@@@@XX++++++@@                  ",
"                  @@++++++++@@@@@@@@XX++++++@@                  ",
"OOOOOOOOOO  OOOOOO++++++++++++++++++XX++++++++OOOOOOOOOOOOOOOOOO",
"OOOOOOOOOO  OOOOOO++++++++++++++++++XX++++++++OOOOOOOOOOOOOOOOOO",
"OOOOOOOO  OOOOOOOOXX..XXXXXX++....++..XXXX..XXOOOOOOOOOOOOOooooo",
"ooooOOOO  OOOOOOOOXX..XXXXXX++....++..XXXX..XXOOOOOOOOOOOOOooooo",
"ooooOO  OOOOOOOOOO++..++++++++XXXX++XX++++..++OOOOOOOOOOOOOOOOOO",
"OOOOOO  OOOOOOOOOO++..++++++++XXXX++XX++++..++OOOOOOOOOOOOOOOOOO",
"OOOO  OOOOOOOOOooo++..++++++++++++++++++++..++OOOOOOOOOOOOOOOOOO",
"OOOO  OOOOoooooooo++..++++++++++++++++++++..++OOOooooooOOOOOOOOO",
"OO  OOOOOOooooooOO++XXXXXXXXXXXXXXXXXXXXXXXX++OOOooooooOOOOOOOOO",
"OO  OOOOOOOOOOOOOO++XXXXXXXXXXXXXXXXXXXXXXXX++OOOOOOOOOOOOOOOOOO",
"  OOOOOOOOOOOOOOOO++++++++++++++++++++++++++++OOOOOOOOOOOOOOOOOO",
"  OOOOOOOOOOOOOOOO++++++++++++++++++++++++++++OOOOOOOOOOOOOOOOOO",
"OOOOOOOOOOOOOOOOOOOOOOOOOOOOOO  OOOOOOOOOOOOOOOOOOOOOOOOOOOOOO  ",
"OOOOOOOOOOOOOOOOOOOOOOOOOOOOOO  OOOOOOOOOOOOOOOOOOOOOOOOOOOOOO  ",
"                                                                ",
"                                                                ",
"OOOOOOOOOOOOOO  OOOOOOOOOOOOOOOOOOOOOOOOOOOOOO  OOOOOOOOOOOOOOOO",
"OOOOOOOOOOOOOO  OOOOOOOOOOOOOOOOOOOOOOOOOOOOOO  OOOOOOOOOOOOOOOO",
"OOOOOOOOOOOO  OOOOOOooooooooOOOOOOOOOOOOOOOO  OOOOOOOOOOOOOOOOOO",
"OOOOOOOOOOOO  OOOOOOooooooooOOOOOOOOOOOOOOOO  OOOOOOOOOOOOOOOOOO",
"OOOOOOOOOO  OOOOOOOOOOOOOOOOOOOOOOOOOOOOOO  OOOOOOOOOOOOOOOOOOOO",
"OOOOOOOOOO  OOOOOOOOOOOOOOOOOOOOOOOOOOOOOO  OOOOOOOOOOOOOOOOOOOO",
"OOOOOOOO  OOOOOOOOOOOOOOOOOOOOOOOOOOOOOO  OOOOOOOOOOOOOOOOOOOOOO",
"OOOOOOOO  OOOOOOOOOOOOOOOOOoooooOOOOOOOO  OOOOOOOOOOOOOOOOOOOOOO",
"ooOOOO  OOOOOOOOOOOOOOOOOOOoooooOOOOOO  OOOOOOOOOOOOoooooOOOOOOO",
"ooOOOO  OOOOOOOOOOOOOOOOOOOOOOOOOOOOOO  OOOOOOOOOOOOoooooooooooo",
"OOOO  OOOOOOOOOOOOOOOOOOOOOOOOOOOOOO  OOOOOOOOOOOOOOOOOOoooooooo",
"OOOO  OoooooOOOOOOOOOOOOOOOOOOOOOOOO  OOOOOOOOOOOOOOOOOOOOOOOOOO",
"OO  OOOoooooOOOOOOOOOOOOOOOOOOOOOO  OOOOOOOOOOOOOOOOOOOOOOOOOOOO",
"OO  OOOOOOOOOOOOOOOOOOOOOOOOOOOOOO  OOOOOOOOOOOOOOOOOOOOOOOOOOOO"
};
