/* XPM */
static char *c8231c8892894a6bc1685b4558b495d4jVeoTUq8JcrHb9Zp[] = {
/* columns rows colors chars-per-pixel */
"64 64 5 1 ",
"  c None",
". c #2F283A",
"X c #3F3656",
"o c #425B79",
"O c #418EB0",
/* pixels */
"                                                                ",
"                                                                ",
"                                                                ",
"                                                                ",
"                                                                ",
"                                                                ",
"                                                                ",
"                                                                ",
"                                                                ",
"                                                                ",
"                                                                ",
"                                                                ",
"                                                                ",
"                                                                ",
"                                                                ",
"                                                                ",
"                                                                ",
"                                                                ",
"                                                                ",
"                                                                ",
"                                                                ",
"                                                                ",
"                                                                ",
"                                                                ",
"                          OOOOOOOOOOOO                          ",
"                         OOXXXXXXXXXXOO                         ",
"                         OXOOOOOOOOOOXO                         ",
"                         OoOXXOXXOXXOoO                         ",
"                         OoOooOooOooOoO                         ",
"                         OoOOOOOOOOOOoO                         ",
"                         OOXXXXXXXXXXOO                         ",
"                         oOOOOOOOOOOOOo                         ",
"                         OooooOOOOXoooO                         ",
"                         oooooooooXoooo                         ",
"                         X.XXXo..o.XX.X                         ",
"                         o.ooooXXoXoo.o                         ",
"                         o.oooooooooo.o                         ",
"                         oXXXXXXXXXXXXo                         ",
"                         oooooooooooooo                         ",
"                                                                ",
"                                                                ",
"                                                                ",
"                                                                ",
"                                                                ",
"                                                                ",
"                                                                ",
"                                                                ",
"                                                                ",
"                                                                ",
"                                                                ",
"                                                                ",
"                                                                ",
"                                                                ",
"                                                                ",
"                                                                ",
"                                                                ",
"                                                                ",
"                                                                ",
"                                                                ",
"                                                                ",
"                                                                ",
"                                                                ",
"                                                                ",
"                                                                "
};
