/* XPM */
static char *_3a725f54c1e4024e2cfa1ba1552adeecDenfU2rdmIZN7K4[] = {
/* columns rows colors chars-per-pixel */
"64 64 4 1 ",
"  c #3F2832",
". c #743F39",
"X c #B86F50",
"o c #E4A672",
/* pixels */
"                           .  ................ .................",
"     ooXXXX...............   ... .............  ................",
"   oooXXX.................. ... ...............  .............  ",
"  ooXXX.................... .. ................. ...........   .",
" ooXXX..................... .. .................  .........  ...",
" oXXX...................... ...................      .....  ....",
" XXX....................... .................   ....   ... .....",
" XX........................  ...............  ........     .....",
" X........................   .............   ...........   .....",
" ........................  .  ...           .............  .....",
" ........................         .......  ..............  .....",
" ......................          .. ...... ............... .....",
" ...................    ......  .. ....... ............... .....",
"  .................  .........  . ........ ............... .....",
".   ..............  ........... . ........  ..............  ....",
"...  ...........   ............ . ......... ..............   ...",
"....   .......   .............. . .........  ............  .  ..",
"......  ....   ................ . .......... ...........  ...  .",
".......      .................. ............  .........  .....  ",
".........  .................... ............   .......  ........",
".......... .................... ............           .........",
".......... ...................   ..........  .......  ..........",
".......... ..................  .  ........  ......... ..........",
"..........  .................  ..  ......  ..........  .........",
"..........  ...............          ...  ............ .........",
".........          ......      .....     .............  ........",
"........  XX......        XXXX........ . .............. ........",
".......  XX.........   XXXX...........   ............ .  .......",
"......  X............ XX...............  ............ .    .....",
".....  X............. X.................  .......... .. ..  ....",
"....  X.............. ...................  ...........  ...   ..",
"...  ................ ....................             ....     ",
"... ................. ....................  ..........  ..  ....",
".   ................. .................... ............    .....",
"   .................  ...................  ..............  .....",
"..  . .............. ...................  ...............  .....",
"... ..  ............ ..................  ................. .....",
"...  ... ..........  ......... .......  .................. .....",
"....  ............   .....    .......  ...................  ....",
".....  ..            .    ..........  ...................    ...",
"......    X........  ........        ....................  . ...",
"......  XX..........                 ....................     ..",
"...... X.............  .............  ..................  ..    ",
".....  .............. ...............  ................. ...... ",
"..... ............... ................  ...............  .......",
"....  ............... .................  .............. ........",
"...   ..............  ..................   ...........  ........",
"..      ............ .....................   ........  .........",
"   XXX   ..........  .......................      ... ..........",
" XX...... ...        ......................  ....     ..........",
"X........     X....  .....................  ........  ..........",
".........  XXX......  ...................  ..........  .........",
".......... X.........  .................  ............  ........",
".......... ..........  ................  ..............  .....  ",
".......... ...........  ............... ................  ...  .",
".......... ............  .............  .................  .  ..",
".......... ............        .....   ...................   ...",
".......... . .......... .....         .....................  ...",
".........  .. ......... ..........   .......................  ..",
".........   .. .......  ............ ........................  .",
"........      ........ .............   ... ..................   ",
".......  ....          ...............  ...     ............  . ",
"......  ..............  ...............  ..................  .. ",
"       ................  ...............                        "
};
