/* XPM */
static char *_2d2885cf168474ef6533665074eaf8f192Ul4NREGNwj0DK[] = {
/* columns rows colors chars-per-pixel */
"64 64 4 1 ",
"  c #3F2832",
". c #743F39",
"X c #B86F50",
"o c #E4A672",
/* pixels */
"     ooXXXX.............. ..  ................ .................",
"     ooXXXX...............   ... .............  ................",
"   oooXXX.................. ... ...............  .............  ",
"  ooXXX.................... .. ................. ...........   .",
" ooXXX..................... .. .................  .........  ...",
" oXXX...................... ...................      .....  ....",
" XXX....................... .................   ....   ... .....",
" XX........................  ...............  ........     .....",
" X........................   .............   ...........   .....",
" ........................  .  ...           .............  .....",
" ........................         .......  ..............  .....",
" ......................          .. ...... ............... .....",
" ...................    ......  .. ....... ............... .....",
"  .................  .........  . ........ ............... .....",
".   ..............  ........... . ........  ..............  ....",
"...  ...........   ............ . ......... ..............   ...",
"....   .......   .............. . .........  ............  .  ..",
"......  ....   ................ . .......... ...........  ...  .",
".......      .................. ............  .........  .....  ",
".........  .................... ............   .......  ........",
".......... .................... ............           .........",
".......... ...................   ..........  .......  ..........",
".......... ..................  .  ........  ......... ..........",
"..........  .................  ..  ......  ..........  .........",
"..........  ...............          ...  ............ .........",
".........          ......      .....     .............  ........",
"........  XX......        XXXX........ . .............. ........",
".......  XX.........   XXXX...........   ............ .  .......",
"......  X............ XX...............  ............ .    .....",
".....  X............. X.................  .......... .. ..  ....",
"....  X.............. ...................  ...........  ...   ..",
"...  ................ ....................             ....     ",
"... ................. ....................  ..........  ..  ....",
".   ................. .................... ............    .....",
"   .................  ...................  ..............  .....",
"..  . .............. ...................  ...............  .....",
"... ..  ............ ..................  ................. .....",
"...  ... ..........  ......... .......  .................. .....",
"....  ............   .....    .......  ...................  ....",
".....  ..            .    ..........  ...................    ...",
"......    X........  ........        ....................  . ...",
"......  XX..........                 ....................     ..",
"...... X.............  .............  ..................  ..    ",
".....  .............. ...............  ................. ...... ",
"..... ............... ................  ...............  .......",
"....  ............... .................  .............. ........",
"...   ..............  ..................   ...........  ........",
"..      ............ .....................   ........  .........",
"   XXX   ..........  .......................      ... ..........",
" XX...... ...        ......................  ....     ..........",
"X........     X....  .....................  ........  ..........",
".........  XXX......  ...................  ..........  .........",
".......... X.........  .................  ............  ........",
".......... ..........  ................  ..............  .....  ",
".......... ...........  ............... ................  ...  .",
".......... ............  .............  .................  .  ..",
".......... ............        .....   ...................   ...",
".......... . .......... .....         .....................  ...",
".........  .. ......... ..........   .......................  ..",
".........   .. .......  ............ ........................  .",
"........      ........ .............   ... ..................   ",
".......  oX..          ...............  ...     ............  . ",
"......  oXX...........  ...............  ..................  .. ",
"       ooX.............  ...............                        "
};
