/* XPM */
static char *cacc1317862941afb307e23df41493f2GIB1Dw6l7Pw0R1b8[] = {
/* columns rows colors chars-per-pixel */
"64 64 81 1 ",
"  c #2C2622",
". c #302723",
"X c #302823",
"o c #312824",
"O c #3D332D",
"+ c #3F352E",
"@ c #3F2832",
"# c #40362F",
"$ c #423730",
"% c #423830",
"& c #443A32",
"* c #463C33",
"= c #463A34",
"- c #463C34",
"; c #483D35",
": c #4C3E37",
"> c #743F39",
", c #52433B",
"< c #53443C",
"1 c #57473F",
"2 c #58473F",
"3 c #58483F",
"4 c #594940",
"5 c #5C4B42",
"6 c #5C4C42",
"7 c #5E4E44",
"8 c #5F5046",
"9 c #67574A",
"0 c #68584B",
"q c #6C5A4D",
"w c #6E5C4F",
"e c #715D4F",
"r c #725F50",
"t c #736151",
"y c #756353",
"u c #766453",
"i c #776555",
"p c #796756",
"a c #7A6957",
"s c #7B6958",
"d c #7D6B59",
"f c #7E6C5A",
"g c #806F5C",
"h c #83725E",
"j c #84735F",
"k c #85745F",
"l c #B86F50",
"z c #857460",
"x c #8D7C66",
"c c #8F7F68",
"v c #92826B",
"b c #93836C",
"n c #95836C",
"m c #95846D",
"M c #98876F",
"N c #98886F",
"B c #9A8971",
"V c #9C8B73",
"C c #9C8C73",
"Z c #9F8E77",
"A c #A59373",
"S c #A59474",
"D c #A89777",
"F c #A3927A",
"G c #A5947B",
"H c #A4937C",
"J c #A7967E",
"K c #A8977E",
"L c #A9987F",
"P c #E4A672",
"I c #AB9A81",
"U c #AC9B81",
"Y c #B0A387",
"T c #B3A689",
"R c #B5A88B",
"E c #B6AA8C",
"W c #B8AB8D",
"Q c #BAAE8F",
"! c #BBAF91",
"~ c #BCAF91",
"^ c #BCB091",
/* pixels */
"@@@@@PPllll>>>>>>>>>>>>>>@>>@@>>>>>>>>>>>>>>>>@>>>>>>>>>>>>>>>>>",
"@@@@@PPllll>>>>>>>>>>>>>>>@@@>>>@>>>>>>>>>>>>>@@>>>>>>>>>>>>>>>>",
"@@@PPPlll>>>>>>>>>>>>>>>>>>@>>>@>>>>>>>>>>>>>>>@@>>>>>>>>>>>>>@@",
"@@PPlll>>>>>>>>>>>>>>>>>>>>@>>@>>>>>>>>>>>>>>>>>@>>>>>>>>>>>@@@>",
"@PPlll>>>>>>>>>>>>>>>>>>>>>@>>@>>>>>>>>>>>>>>>>>@@>>>>>>>>>@@>>>",
"@Plll>>>>>>>>>>>>>>>>>>>>>>@>>>>>>>>>>>>>>>>>>>@@@@@@>>>>>@@>>>>",
"@lll>>>>>>>>>>>>>>>>>>>>>>>@>>>>>>>>>>>>>>>>>@@@>>>>@@@>>>@>>>>>",
"@ll>>>>>>>>>>>>>>>>>>>>>>>>@@>>>>>>>>>>>>>>>@@>>>>>>>>@@@@@>>>>>",
"@l>>>>>>>>>>>>>>>>>>>>>>>>@@@>>>>>>>>>>>>>@@@>>>>>>>>>>>@@@>>>>>",
"@>>>>>>>>>>>>>>>>>>>>>>>>@@>@@>>>@@@@@@@@@@@>>>>>>>>>>>>>@@>>>>>",
"@>>>>>>>>>>>>>>>>>>>>>>>>@@@@@@@@@>>>>>>>@@>>>>>>>>>>>>>>@@>>>>>",
"@>>>>>>>>>>>>>>>>>>>>>>@@@@@@@@@@>>@>>>>>>@>>>>>>>>>>>>>>>@>>>>>",
"@>>>>>>>>>>>>>>>>>>>@@@@>>>>>>@@>>@>>>>>>>@>>>>>>>>>>>>>>>@>>>>>",
"@@>>>>>>>>>>>>>>>>>@@>>>>>>>>>@@>@>>>>>>>>@>>>>>>>>>>>>>>>@>>>>>",
">@@@>>>>>>>>>>>>>>@@>>>>>>>>>>>qqqqqqq>>>>@@>>>>>>>>>>>>>>@@>>>>",
">>>@@>>>>>>>>>>>@@@>>>>>>>>>>qwHHHHHmmeq>>>@>>>>>>>>>>>>>>@@@>>>",
">>>>@@@>>>>>>>@@@>>>>>>>>>>>eGFrrmBBSBmmw>>@@>>>>>>>>>>>>@@>@@>>",
">>>>>>@@>>>>@@@>>>>>>>>>>>>6RBBmmtemBBBJRo>>@>>>>>>>>>>>@@>>>@@>",
">>>>>>>@@@@@@>>>>>>>>>>>>>>6~KBBBmmMBJQd6 >>@@>>>>>>>>>@@>>>>>@@",
">>>>>>>>>@@>>>>>>>>>>>>>>>>1s!QLBBBKQ!d41<>>@@@>>>>>>>@@>>>>>>>>",
">>>>>>>>>>@>>>>>>>>>>>>>>>qqyiB^!!!^d41111qq@@@@@@@@@@@>>>>>>>>>",
">>>>>>>>>>@>>>>>>>>>>>>>qeLJyyyymMm411111gmMqq>>>>>>@@>>>>>>>>>>",
">>>>>>>>>>@>>>>>>>>>>>>rKBBBmyyyym411113hMBBBmw>>>>>>@>>>>>>>>>>",
">>>>>>>>>>@@>>>>>>>>>>rJBBQBBMiiyy1114gmBBBBBBZ >>>>>@@>>>>>>>>>",
">>>>>>>>>>@@>>>>>>>>>1LBBBBBBBBBpi44gmBBBBBBBZ#+ >>>>>@>>>>>>>>>",
">>>>>>>>>@@@@@@@@@@>>1LBBBBC!QBBSBBBBBBBBBBIT##+ >>>>>@@>>>>>>>>",
">>>>>>>>@@ll>>>>>>@@@4WQIU!WBBBBBBBBBBBmJJJT1###+ >>>>>@>>>>>>>>",
">>>>>>>@@ll>>>>>>>>>1yiMQQLBBBQBBBBmJJJzkyt1<##++ >>>@>@@>>>>>>>",
">>>>>>@@l>>>>>>>>>>>1yjyiBWLBBmmJKKpihhmLy11#%&%o >>>@>@@@@>>>>>",
">>>>>@@l>>>>>>>>>>>>1yyyyypQJJyyyhhmBBBKQ411%iBBvo>>@>>@>>@@>>>>",
">>>>@@l>>>>>>>>>>>>wwyyyyyyt14BBBBBBBBLQ411#iBBBBno>>>@@>>>@@@>>",
">>>@@>>>>>>>>>>>>>qJBMzyyyyt4B^IBBBBBK!61;1%ILBBBBF @@@>>>>@@@@@",
">>>@>>>>>>>>>>>>>qGBBMMmjyt3yup^!ILLQ^81111#p^QLLIR >>@@>>@@>>>>",
">@@@>>>>>>>>>>>>qFBDBBBMmnt&yyypBQ!!f71111#typd!!E4, >>@@@@>>>>>",
"@@@>>>>>>>>>>>>qTIBBBBBBBMmc&yyyipBa41111ttyyyyppi11 >>>>@@>>>>>",
">>@@>@>>>>>>>>>1mQLBBBSBBBBF%yyyyyi4111rvmmmmyyyyt11 >>>>@@>>>>>",
">>>@>>@@>>>>>>>1yBQLBBBBBKJi<&yyyyy211evMBBBMmvyt311 >>>>>@>>>>>",
">>>@@>>>@>>>>>1ryiBQKBBBLEi31#3333t211YBBBBBBBMmv111, >>>>@>>>>>",
">>>>@@>>>>>>>>1tyymBQKBLEi111#%nnh411eMWQQQQQQQRy1111 >>>>@@>>>>",
">>>>>@@>>@@@@@1t0tmpB!QWi11;1$vBBmnh4tiBQVBBVQi61111# >>>@@@@>>>",
">>>>>>@@@@l>>>1tybpyipQi111<&bBBBBBmmzyiBQBQE4111111# >>>@@>@>>>",
">>>>>>@@ll>>>>1tymiyyym1111&mBBBQBBBBMzyuNQi411<o111#+ >>@@@@@>>",
">>>>>>@l>>>>>>1tymiyjym1=1-JBBBBMMABBBM&tym1111<.111## >@@>>@@@@",
">>>>>@@>>>>>>> wmiyyyy111<;!ILmmiymBBBJ*tym111;<X11### >@>>>>>>@",
">>>>>@>>>>>>>>> xiyyym11<#-BQEiiMBBBLE6$wyym1111< 1##+ @@>>>>>>>",
">>>>@@>>>>>>>>>> wryyv<##%yyt4Q!IIIQE711#tym1111< <++ >@>>>>>>>>",
">>>@@@>>>>>>>>>>>  we###+#yyr3ymQQEm4111#tyy1111, O  >@@>>>>>>>>",
">>@@@@@@>>>>>>>>>>>  ++++oyt1yyymM4111:<#wyyt;1,O  >>@@>>>>>>>>>",
"@@@lll@@@>>>>>>>>>>@@    oyr3yyyym41111## wrw<,  @>>>@>>>>>>>>>>",
"@ll>>>>>>@>>>@@@@@@@@>>>>ot1yyyyym5111##+      >>@@@@@>>>>>>>>>>",
"l>>>>>>>>@@@@@l>>>>@@>>>>ow1y9yyyym41$#+ >@@>>>>>>>>@@>>>>>>>>>>",
">>>>>>>>>@@lll>>>>>>@@>>>>.1tyyyyym4#++ >@@>>>>>>>>>>@@>>>>>>>>>",
">>>>>>>>>>@l>>>>>>>>>@@>>>> oyyyyym&#  >@@>>>>>>>>>>>>@@>>>>>>>>",
">>>>>>>>>>@>>>>>>>>>>@@>>>>>>.....o  >>@@>>>>>>>>>>>>>>@@>>>>>@@",
">>>>>>>>>>@>>>>>>>>>>>@@>>>>>>>>>>>>>>>@>>>>>>>>>>>>>>>>@@>>>@@>",
">>>>>>>>>>@>>>>>>>>>>>>@@>>>>>>>>>>>>>@@>>>>>>>>>>>>>>>>>@@>@@>>",
">>>>>>>>>>@>>>>>>>>>>>>@@@@@@@@>>>>>@@@>>>>>>>>>>>>>>>>>>>@@@>>>",
">>>>>>>>>>@>@>>>>>>>>>>@>>>>>@@@@@@@@@>>>>>>>>>>>>>>>>>>>>>@@>>>",
">>>>>>>>>@@>>@>>>>>>>>>@>>>>>>>>>>@@@>>>>>>>>>>>>>>>>>>>>>>>@@>>",
">>>>>>>>>@@@>>@>>>>>>>@@>>>>>>>>>>>>@>>>>>>>>>>>>>>>>>>>>>>>>@@>",
">>>>>>>>@@@@@@>>>>>>>>@>>>>>>>>>>>>>@@@>>>@>>>>>>>>>>>>>>>>>>@@@",
">>>>>>>@@Pl>>@@@@@@@@@@>>>>>>>>>>>>>>>@@>>>@@@@@>>>>>>>>>>>>@@>@",
">>>>>>@@Pll>>>>>>>>>>>@@>>>>>>>>>>>>>>>@@>>>>>>>>>>>>>>>>>>@@>>@",
"@@@@@@@PPl>>>>>>>>>>>>>@@>>>>>>>>>>>>>>>@@@@@@@@@@@@@@@@@@@@@@@@"
};
