/* XPM */
static char *_154b3e6710942f7c383574a6706a733Ft6ASneTz90xLpqE[] = {
/* columns rows colors chars-per-pixel */
"64 64 16 1 ",
"  c #3F2832",
". c #743F39",
"X c #6B4728",
"o c #336B4B",
"O c #CF3116",
"+ c #8C501C",
"@ c #B86F50",
"# c #3F8846",
"$ c #C59600",
"% c #F3C229",
"& c #A18147",
"* c #D9B166",
"= c #E4A672",
"- c #C78A84",
"; c #EDB8B2",
": c white",
/* pixels */
"                           .  ................ .................",
"     ==@@@@...............   ... .............  ................",
"   ===@@@.................. ... ...............  .............  ",
"  ==@@@.................... .. ................. ...........   .",
" ==@@@..................... $$$$$$$$............  .........  ...",
" =@@@....................$$$%%%%%%%%$$$........      .....  ....",
" @@@..................$$$%%%%%%%%%%%%%%$$$...   ....   ... .....",
" @@..................$%%%%%%%%%%%%%%%%%%%%$.  ........     .....",
" @..................$%::::%%%%%%%%%%%%%%%%%$ ...........   .....",
" ..................$%::::%%%%%%%%%%%%%%%%%%%$............  .....",
" ..................$%:::%%%%%%%%%%%%%%%%%%%%$............  .....",
" .................$%%::%%%%%%%%%%%%%%%%%%%%%%$............ .....",
" .................$%%:%%%%%%%%%%%%%%%%%%%%%%%$............ .....",
"  ...............$%%%%%%%%%%%%%%%%%%%%%%%%%%%%$........... .....",
".   .............$%%%%%%%%%%%%%%%%%%%%%%%%%%%%$...........  ....",
"...  ........... $O%%%%%%%%%%%%%%%%%%%%%%%%%%O$...........   ...",
"....   .......  $OOOOOO%%%%%%%%%%%%%%%%%%OOOOOO$.........  .  ..",
"......  ....   .$OOOOOOOOOOOOOOOOOOOOOOOOOOOOOO$........  ...  .",
".......      ...$%OOOOOOOOOOOOOOOOOOOOOOOOOOOO%$.......  .....  ",
".........  ....$%%%%%%%OOOOOOOOOOOOOOOOOO%%%%%%%$.....  ........",
".......... ....$%%%%%%%%%%%%%%%%%%%%%%%%%%%%%%%%$      .........",
".......... ....$%%%%%%%%%%%%%%%%%%%%%%%%%%%%%%%%$...  ..........",
".......... .....$%%%%%%%%%%%%%%%%%%%%%%%%%%%%%%$..... ..........",
"..........  ....::::::%%%%%%%%%%%%%%%%%%%%::::::.....  .........",
"..........  ...:;::::::::::::::::::::::::::::::;:..... .........",
".........     ::;::::::::::::::::::::::::::::::;::....  ........",
"........  @@.:::;;::::::::::::::::::::::::::::;;:::.... ........",
".......  @@.:::::;;::::::::::::::::::::::::::;;:::::. .  .......",
"......  @........-;;########################;;-...... .    .....",
".....  @.........o############################o..... .. ..  ....",
"....  @.........o##############################o......  ...   ..",
"...  ..........o################################o      ....     ",
"... ..........o##################################o....  ..  ....",
".   ..........o##################################o.....    .....",
"   ..........o####################################o......  .....",
"..  . .......o###o############################o###o......  .....",
"... ..  ....o####o############################o####o...... .....",
"...  ... ...o####o############################o####o...... .....",
"....  ......o####o############################o####o......  ....",
".....  ..   o####o############################o####o.....    ...",
"......    @o#####o############################o#####o....  . ...",
"......  @@.o#####o############################o#####o....     ..",
"...... @...o#####o############################o#####o...  ..    ",
".....  ....o####oo############################oo####o... ...... ",
"..... .....o###o.o############################o.o###o..  .......",
"....  .....o###o..o##########################o..o###o.. ........",
"...   .....o##o...o##########################o...o##o.  ........",
"..      ...o#;-....o########################o....-;#o  .........",
"   @@@   ..-;;;-... o######################o    -;;;- ..........",
" @@.....  .-;;;-    &*####################*& ...-;;;- ..........",
"@........  -;;;-... &****##############****&....-;;;- ..........",
".........  .---.....&**********************&.....---.  .........",
".......... .........&**********************&..........  ........",
".......... .........&********&&&&&&********&...........  .....  ",
".......... ..........&******&......&******&.............  ...  .",
".......... ..........&*****&........&*****&..............  .  ..",
".......... ...........&****&   .....&****&................   ...",
".......... . ..........&**&..        &**&..................  ...",
".........  .. .........X+++X......  X+++X...................  ..",
".........   .. .......X++++X........X++++X...................  .",
"........      .......X++++X......... X++++X..................   ",
".......  ....         XXXX............XXXX..................  . ",
"......  ..............  ..   ..........  ..................  .. ",
"       ................  ...............                        "
};
