/* XPM */
static char *_742266a4a57414cc0000eec4fe13b1cGUn7J7H01BQhjy4T[] = {
/* columns rows colors chars-per-pixel */
"64 64 12 1 ",
"  c #2C1515",
". c #3F2832",
"X c #743F39",
"o c #547272",
"O c #BE2828",
"+ c #8C501C",
"@ c #B86F50",
"# c #D9B166",
"$ c #E4A672",
"% c #EDB8B2",
"& c #AAD3D3",
"* c white",
/* pixels */
".....$$@@@@XXXXXXXXXXXXXX.XX..XXXXXXXXXXXXXXXX.XXXXXXXXXXXXXXXXX",
".....$$@@@@XXXXXXXXXXXXXXX...XXX.XXXXXXXXXXXXX..XXXXXXXXXXXXXXXX",
"...$$$@@@XXXXXXXXXXXXXXXXXX.XXX.XXXXXXXXXXXXXXX..XXXXXXXXXXXXX..",
"..$$@@@XXXXXXXXXXXXXXXXXXXX.XX.XXXXXXXXXXXXXXXXX.XXXXXXXXXXX...X",
".$$@@@XXXXXXXXXXXXXXXXXXXXX.XX.XXXXXXXXXXXXXXXXX..XXXXXXXXX..XXX",
".$@@@XXXXXXXXXXXXXXXXXXXXXX.        XXXXXXXXXXX......XXXXX..XXXX",
".@@@XXXXXXXXXXXXXXXXXXXXX   oooooooo   XXXXXX...XXXX...XXX.XXXXX",
".@@XXXXXXXXXXXXXXXXXXX   oooooooooooooo   XX..XXXXXXXX.....XXXXX",
".@XXXXXXXXXXXXXXXXXXX oooooooooooooooooooo ..XXXXXXXXXXX...XXXXX",
".XXXXXXXXXXXXXXXXXXX o&&&&ooooooooooooooooo XXXXXXXXXXXXX..XXXXX",
".XXXXXXXXXXXXXXXXXX o&&&&ooooooooooooooooooo XXXXXXXXXXXX..XXXXX",
".XXXXXXXXXXXXXXXXXX o&&&oooooooooooooooooooo XXXXXXXXXXXXX.XXXXX",
".XXXXXXXXXXXXXXXXX oo&&oooooooooooooooooooooo XXXXXXXXXXXX.XXXXX",
"..XXXXXXXXXXXXXXXX oo&ooooooooooooooooooooooo XXXXXXXXXXXX.XXXXX",
"X...XXXXXXXXXXXXX oooooooooooooooooooooooooooo XXXXXXXXXXX..XXXX",
"XXX..XXXXXXXXXXX. oooooooooooooooooooooooooooo XXXXXXXXXXX...XXX",
"XXXX...XXXXXXX... oooooooooooooooooooooooooooo XXXXXXXXXX..X..XX",
"XXXXXX..XXXX...X oooooooooooooooooooooooooooooo XXXXXXXX..XXX..X",
"XXXXXXX......XXX oooooooooooooooooooooooooooooo XXXXXXX..XXXXX..",
"XXXXXXXXX..XXXXX oooooooooooooooooooooooooooooo XXXXXX..XXXXXXXX",
"XXXXXXXXXX.XXXXX oooooooooooooooooooooooooooooo .......XXXXXXXXX",
"XXXXXXXXXX.XXXXX oooooooooooooooooooooooooooooo XXXX..XXXXXXXXXX",
"XXXXXXXXXX.XXXXX      oooooooooooooooooooo      XXXXX.XXXXXXXXXX",
"XXXXXXXXXX..XXX %*****                    *****% XXXX..XXXXXXXXX",
"XXXXXXXXXX..XX *%******************************%* XXXX.XXXXXXXXX",
"XXXXXXXXX.... **%******************************%** XXX..XXXXXXXX",
"XXXXXXXX..@@ ***%%****************************%%*** XXX.XXXXXXXX",
"XXXXXXX..@@ *****%%**OOOOOOOOOOOOOOOOOOOOOO**%%***** .X..XXXXXXX",
"XXXXXX..@XX       %OOOOOOOOOOOOOOOOOOOOOOOOOO%       .X....XXXXX",
"XXXXX..@XXXXXXXXX OOOOOOOOOOOOOOOOOOOOOOOOOOOO XXXXX.XX.XX..XXXX",
"XXXX..@XXXXXXXXX OOOOOOOOOOOOOOOOOOOOOOOOOOOOOO XXXXXX..XXX...XX",
"XXX..XXXXXXXXXX OOOOOOOOOOOOOOOOOOOOOOOOOOOOOOOO ......XXXX.....",
"XXX.XXXXXXXXXX OOOOOOOOOOOOOOOOOOOOOOOOOOOOOOOOOO XXXX..XX..XXXX",
"X...XXXXXXXXXX OOOOOOOOOOOOOOOOOOOOOOOOOOOOOOOOOO XXXXX....XXXXX",
"...XXXXXXXXXX OOOOOOOOOOOOOOOOOOOOOOOOOOOOOOOOOOOO XXXXXX..XXXXX",
"XX..X.XXXXXXX OOO OOOOOOOOOOOOOOOOOOOOOOOOOOOO OOO XXXXXX..XXXXX",
"XXX.XX..XXXX OOOO OOOOOOOOOOOOOOOOOOOOOOOOOOOO OOOO XXXXXX.XXXXX",
"XXX..XXX.XXX OOOO OOOOOOOOOOOOOOOOOOOOOOOOOOOO OOOO XXXXXX.XXXXX",
"XXXX..XXXXXX OOOO OOOOOOOOOOOOOOOOOOOOOOOOOOOO OOOO XXXXXX..XXXX",
"XXXXX..XX... OOOO OOOOOOOOOOOOOOOOOOOOOOOOOOOO OOOO XXXXX....XXX",
"XXXXXX....@ OOOOO OOOOOOOOOOOOOOOOOOOOOOOOOOOO OOOOO XXXX..X.XXX",
"XXXXXX..@@X OOOOO OOOOOOOOOOOOOOOOOOOOOOOOOOOO OOOOO XXXX.....XX",
"XXXXXX.@XXX OOOOO OOOOOOOOOOOOOOOOOOOOOOOOOOOO OOOOO XXX..XX....",
"XXXXX..XXXX OOOO  OOOOOOOOOOOOOOOOOOOOOOOOOOOO  OOOO XXX.XXXXXX.",
"XXXXX.XXXXX OOO X OOOOOOOOOOOOOOOOOOOOOOOOOOOO X OOO XX..XXXXXXX",
"XXXX..XXXXX OOO XX OOOOOOOOOOOOOOOOOOOOOOOOOO XX OOO XX.XXXXXXXX",
"XXX...XXXXX OO XXX OOOOOOOOOOOOOOOOOOOOOOOOOO XXX OO X..XXXXXXXX",
"XX......XXX O% XXXX OOOOOOOOOOOOOOOOOOOOOOOO XXXX %O ..XXXXXXXXX",
"...@@@...XX %%% XXX. OOOOOOOOOOOOOOOOOOOOOO .... %%% .XXXXXXXXXX",
".@@XXXXXX.X %%% .... OOOOOOOOOOOOOOOOOOOOOO .XXX %%% .XXXXXXXXXX",
"@XXXXXXXX.. %%% XXX. ##OOOOOOOOOOOOOOOOOO## XXXX %%% .XXXXXXXXXX",
"XXXXXXXXX..@   XXXXX ###################### XXXXX   X..XXXXXXXXX",
"XXXXXXXXXX.@XXXXXXXX ###################### XXXXXXXXXX..XXXXXXXX",
"XXXXXXXXXX.XXXXXXXXX ########      ######## XXXXXXXXXXX..XXXXX..",
"XXXXXXXXXX.XXXXXXXXXX ###### XXXXXX ###### XXXXXXXXXXXXX..XXX..X",
"XXXXXXXXXX.XXXXXXXXXX ##### XXXXXXXX ##### XXXXXXXXXXXXXX..X..XX",
"XXXXXXXXXX.XXXXXXXXXXX #### ...XXXXX #### XXXXXXXXXXXXXXXX...XXX",
"XXXXXXXXXX.X.XXXXXXXXXX ## XX........ ## XXXXXXXXXXXXXXXXXX..XXX",
"XXXXXXXXX..XX.XXXXXXXXX +++ XXXXXX.. +++ XXXXXXXXXXXXXXXXXXX..XX",
"XXXXXXXXX...XX.XXXXXXX ++++ XXXXXXXX ++++ XXXXXXXXXXXXXXXXXXX..X",
"XXXXXXXX......XXXXXXX ++++ XXXXXXXXX. ++++ XXXXXXXXXXXXXXXXXX...",
"XXXXXXX..$@XX.........    XXXXXXXXXXXX    X.....XXXXXXXXXXXX..X.",
"XXXXXX..$@@XXXXXXXXXXX..XXXXXXXXXXXXXXX..XXXXXXXXXXXXXXXXXX..XX.",
".......$$@XXXXXXXXXXXXX..XXXXXXXXXXXXXXX........................"
};
