/* XPM */
static char *_1da5aeae17a43e7964f1605724acdcaYJgi7zcAOZDJayXc[] = {
/* columns rows colors chars-per-pixel */
"64 64 16 1 ",
"  c #2C1515",
". c #3F2832",
"X c #743F39",
"o c #547272",
"O c #962727",
"+ c #BE2828",
"@ c #8C501C",
"# c #B86F50",
"$ c #B97D77",
"% c #D9B166",
"& c #E4A672",
"* c #5FCDE4",
"= c #BBBBBB",
"- c #EDB8B2",
"; c #AAD3D3",
": c white",
/* pixels */
".....&&####XXXXXXXXXXXXXX.XX..XXXXXXXXXXXXXXXX.XXXXXXXXXXXXXXXXX",
".....&&####XXXXXXXXXXXXXXX...XXX.XXXXXXXXXXXXX..XXXXXXXXXXXXXXXX",
"...&&&###XXXXXXXXXXXXXXXXXX.XXX.XXXXXXXXXXXXXXX..XXXXXXXXXXXXX..",
"..&&###XXXXXXXXXXXXXXXXXXXX.XX.XXXXXXXXXXXXXXXXX.XXXXXXXXXXX...X",
".&&###XXXXXXXXXXXXXXXXXXXXX.XX.XXXXXXXXXXXXXXXXX..XXXXXXXXX..XXX",
".&###XXXXXXXXXXXXXXXXXXXXXX.        XXXXXXXXXXX......XXXXX..XXXX",
".###XXXXXXXXXXXXXXXXXXXXX   oooooooo   XXXXXX...XXXX...XXX.XXXXX",
".##XXXXXXXXXXXXXXXXXXX   oooooooooooooo   XX..XXXXXXXX.....XXXXX",
".#XXXXXXXXXXXXXXXXXXX oooooooooooooooooooo ..XXXXXXXXXXX...XXXXX",
".XXXXXXXXXXXXXXXXXXX o;;;;ooooooooooooooooo XXXXXXXXXXXXX..XXXXX",
".XXXXXXXXXXXXXXXXXX o;;;;ooooooooooooooooooo XXXXXXXXXXXX..XXXXX",
".XXXXXXXXXXXXXXXXXX o;;;oooooooooooooooooooo XXXXXXXXXXXXX.XXXXX",
".XXXXXXXXXXXXXXXXX oo;;oooooooooooooooooooooo XXXXXXXXXXXX.XXXXX",
"..XXXXXXXXXXXXXXXX oo;ooooooo      oooooooooo XXXXXXXXXXXX.XXXXX",
"X...XXXXXXXXXXXXX oooooooooo oooooo oooooooooo XXXXXXXXXXX..XXXX",
"XXX..XXXXXXXXXXX. ooooooooo oooooooo ooooooooo XXXXXXXXXXX...XXX",
"XXXX...XXXXXXX... ooooooooo oo:***oo ooooooooo XXXXXXXXXX..X..XX",
"XXXXXX..XXXX...X oooooooooo o::****o oooooooooo XXXXXXXX..XXX..X",
"XXXXXXX......XXX oooooooooo o******o oooooooooo XXXXXXX..XXXXX..",
"XXXXXXXXX..XXXXX oooooooooo o******o oooooooooo XXXXXX..XXXXXXXX",
"XXXXXXXXXX.XXXXX oooooooooo oo****oo oooooooooo .......XXXXXXXXX",
"XXXXXXXXXX.XXXXX ooooooooooo oooooo ooooooooooo XXXX..XXXXXXXXXX",
"XXXXXXXXXX.XXXXX      ooooooo      ooooooo      XXXXX.XXXXXXXXXX",
"XXXXXXXXXX..XXX ::::::                    :::::: XXXX..XXXXXXXXX",
"XXXXXXXXXX..XX ::::::::::::::------:::::::::::::: XXXX.XXXXXXXXX",
"XXXXXXXXX.... :::::::::::::----------::::::::::::: XXX..XXXXXXXX",
"XXXXXXXX..## :::::::::::----$$----$$----::::::::::: XXX.XXXXXXXX",
"XXXXXXX..## :::::::::------$--------$------::::::::: .X..XXXXXXX",
"XXXXXX..#XX       ==-------$--------$-------==       .X....XXXXX",
"XXXXX..#XXXXXXXXX ::--------$$$$$$$$--------:: XXXXX.XX.XX..XXXX",
"XXXX..#XXXXXXXXX  :::--------::::::--------:::  XXXXXX..XXX...XX",
"XXX..XXXXXXXXXX + :::-------::::::::-------::: + ......XXXX.....",
"XXX.XXXXXXXXXX ++ :::::----:::====:::----::::: ++ XXXX..XX..XXXX",
"X...XXXXXXXXXX +++ ::::::::::=::::=:::::::::: +++ XXXXX....XXXXX",
"...XXXXXXXXXX ++++ :::::::=:=::::::=:=::::::: ++++ XXXXXX..XXXXX",
"XX..X.XXXXXXX +++++ ::::::==::::::::==:::::: +++++ XXXXXX..XXXXX",
"XXX.XX..XXXX +++++++ :::::::::::::::::::::: +++++++ XXXXXX.XXXXX",
"XXX..XXX.XXX ++++++++  ::::::::::::::::::  ++++++++ XXXXXX.XXXXX",
"XXXX..XXXXXX ++++ +++++   ::::::::::::   +++++ ++++ XXXXXX..XXXX",
"XXXXX..XX... ++++ ++++++O+            +O++++++ ++++ XXXXX....XXX",
"XXXXXX....# +++++ ++++++O++++O++++O++++O++++++ +++++ XXXX..X.XXX",
"XXXXXX..##X +++++ ++++++O+++O++O+++O+++O++++++ +++++ XXXX.....XX",
"XXXXXX.#XXX +++++ ++++++O++O+++O++++O++O++++++ +++++ XXX..XX....",
"XXXXX..XXXX ++++  +++++++OO++++O+++++OO+++++++  ++++ XXX.XXXXXX.",
"XXXXX.XXXXX +++ X +++++++++++++O+O++++++++++++ X +++ XX..XXXXXXX",
"XXXX..XXXXX +++ XX ++++++++++++O+++++++++++++ XX +++ XX.XXXXXXXX",
"XXX...XXXXX ++ XXX ++++++++++++O+++++++++++++ XXX ++ X..XXXXXXXX",
"XX......XXX +- XXXX +++++++++++O+O++++++++++ XXXX -+ ..XXXXXXXXX",
"...###...XX --- XXX. ++++++++++O+++++++++++ .... --- .XXXXXXXXXX",
".##XXXXXX.X --- .... ++++++++++O+O+++++++++ .XXX --- .XXXXXXXXXX",
"#XXXXXXXX.. --- XXX. %%++++++++O+++++++++%% XXXX --- .XXXXXXXXXX",
"XXXXXXXXX..#   XXXXX %%%%++++++O+++++++%%%% XXXXX   X..XXXXXXXXX",
"XXXXXXXXXX.#XXXXXXXX %%%%%%%%%%%%%%%%%%%%%% XXXXXXXXXX..XXXXXXXX",
"XXXXXXXXXX.XXXXXXXXX %%%%%%%%      %%%%%%%% XXXXXXXXXXX..XXXXX..",
"XXXXXXXXXX.XXXXXXXXXX %%%%%% XXXXXX %%%%%% XXXXXXXXXXXXX..XXX..X",
"XXXXXXXXXX.XXXXXXXXXX %%%%% XXXXXXXX %%%%% XXXXXXXXXXXXXX..X..XX",
"XXXXXXXXXX.XXXXXXXXXXX %%%% ...XXXXX %%%% XXXXXXXXXXXXXXXX...XXX",
"XXXXXXXXXX.X.XXXXXXXXXX %% XX........ %% XXXXXXXXXXXXXXXXXX..XXX",
"XXXXXXXXX..XX.XXXXXXXXX @@@ XXXXXX.. @@@ XXXXXXXXXXXXXXXXXXX..XX",
"XXXXXXXXX...XX.XXXXXXX @@@@ XXXXXXXX @@@@ XXXXXXXXXXXXXXXXXXX..X",
"XXXXXXXX......XXXXXXX @@@@ XXXXXXXXX. @@@@ XXXXXXXXXXXXXXXXXX...",
"XXXXXXX..&#XX.........    XXXXXXXXXXXX    X.....XXXXXXXXXXXX..X.",
"XXXXXX..&##XXXXXXXXXXX..XXXXXXXXXXXXXXX..XXXXXXXXXXXXXXXXXX..XX.",
".......&&#XXXXXXXXXXXXX..XXXXXXXXXXXXXXX........................"
};
