/* XPM */
static char *d3d28a2946dc48d0eac3b2a4da8fc4c7i8WBGTodgpGJGQoU[] = {
/* columns rows colors chars-per-pixel */
"64 64 20 1 ",
"  c #3F2832",
". c #4D2E18",
"X c #743F39",
"o c #6B4728",
"O c #7A4620",
"+ c #336B4B",
"@ c #CF3116",
"# c #8C501C",
"$ c #B86F50",
"% c #3F8846",
"& c #C59600",
"* c #F3C229",
"= c #A18147",
"- c #D9B166",
"; c #E4A672",
": c #5FCDE4",
"> c #C78A84",
", c #EDB8B2",
"< c #D2D2D2",
"1 c white",
/* pixels */
"                           X  XXXXXXXXXXXXXXXX XXXXXXXXXXXXXXXXX",
"     ;;$$$$XXXXXXXXXXXXXXX   XXX XXXXXXXXXXXXX  XXXXXXXXXXXXXXXX",
"   ;;;$$$XXXXXXXXXXXXXXXXXX XXX XXXXXXXXXXXXXXX  XXXXXXXXXXXXX  ",
"  ;;$$$XXXXXXXXXXXXXXXXXXXX XX XXXXXXXXXXXXXXXXX XXXXXXXXXXX   X",
" ;;$$$XXXXXXXXXXXXXXXXXXXXX &&&&&&&&XXXXXXXXXXXX  XXXXXXXXX  XXX",
" ;$$$XXXXXXXXXXXXXXXXXXXX&&&********&&&XXXXXXXX      XXXXX  XXXX",
" $$$XXXXXXXXXXXXXXXXXX&&&**************&&&XXX   XXXX   XXX XXXXX",
" $$XXXXXXXXXXXXXXXXXX&********************&X  XXXXXXXX     XXXXX",
" $XXXXXXXXXXXXXXXXXX&*1111*****************& XXXXXXXXXXX   XXXXX",
" XXXXXXXXXXXXXXXXXX&*1111*******************&XXXXXXXXXXXX  XXXXX",
" XXXXXXXXXXXXXXXXXX&*111********************&XXXXXXXXXXXX  XXXXX",
" XXXXXXXXXXXXXXXXX&**11**********************&XXXXXXXXXXXX XXXXX",
" XXXXXXXXXXXXXXXXX&**1***********************&XXXXXXXXXXXX XXXXX",
"  XXXXXXXXXXXXXXX&***********OOOOOO***********&XXXXXXXXXXX XXXXX",
"X   XXXXXXXXXXXXX&**********OOOOOOOO**********&XXXXXXXXXXX  XXXX",
"XXX  XXXXXXXXXXX &@********OOOOOOOOOO********@&XXXXXXXXXXX   XXX",
"XXXX   XXXXXXX  &@@@@@@****OOO....OOO****@@@@@@&XXXXXXXXX  X  XX",
"XXXXXX  XXXX   X&@@@@@@@@@@OO.11::.OO@@@@@@@@@@&XXXXXXXX  XXX  X",
"XXXXXXX      XXX&*@@@@@@@@@OO.::::.OO@@@@@@@@@*&XXXXXXX  XXXXX  ",
"XXXXXXXXX  XXXX&*******@@@@OO.::::.OO@@@@*******&XXXXX  XXXXXXXX",
"XXXXXXXXXX XXXX&***********OOO....OOO***********&      XXXXXXXXX",
"XXXXXXXXXX XXXX&************OOOOOOOO************&XXX  XXXXXXXXXX",
"XXXXXXXXXX XXXXX&************OOOOOO************&XXXXX XXXXXXXXXX",
"XXXXXXXXXX  XXXX111111********************111111XXXXX  XXXXXXXXX",
"XXXXXXXXXX  XXX1111111111111,,,,,,,,1111111111111XXXXX XXXXXXXXX",
"XXXXXXXXX     1111111111111,,,,,,,,,,1111111111111XXXX  XXXXXXXX",
"XXXXXXXX  $$X11111111111,,,,>>,,,,>>,,,,11111111111XXXX XXXXXXXX",
"XXXXXXX  $$X111111111,,,,,,>,,,,,,,,>,,,,,,111111111X X  XXXXXXX",
"XXXXXX  $XXXXXXXX<<<,,,,,,,>,,,,,,,,>,,,,,,,<<<XXXXXX X    XXXXX",
"XXXXX  $XXXXXXXXX111,,,,,,,,>>>>>>>>,,,,,,,,111XXXXX XX XX  XXXX",
"XXXX  $XXXXXXXXX+1111,,,,,,,,111111,,,,,,,,1111+XXXXXX  XXX   XX",
"XXX  XXXXXXXXXX+%1111,,,,,,,11111111,,,,,,,1111%+      XXXX     ",
"XXX XXXXXXXXXX+%%111111,,,,111<<<<111,,,,111111%%+XXXX  XX  XXXX",
"X   XXXXXXXXXX+%%%11111111111<1111<11111111111%%%+XXXXX    XXXXX",
"   XXXXXXXXXX+%%%%11111111<1<111111<1<11111111%%%%+XXXXXX  XXXXX",
"XX  X XXXXXXX+%%%%%1111111<<11111111<<1111111%%%%%+XXXXXX  XXXXX",
"XXX XX  XXXX+%%%%%%%111111111111111111111111%%%%%%%+XXXXXX XXXXX",
"XXX  XXX XXX+%%%%%%%%1111111111111111111111%%%%%%%%+XXXXXX XXXXX",
"XXXX  XXXXXX+%%%%+%%%%%111111111111111111%%%%%+%%%%+XXXXXX  XXXX",
"XXXXX  XX   +%%%%+%%%%%%+%111111111111%+%%%%%%+%%%%+XXXXX    XXX",
"XXXXXX    $+%%%%%+%%%%%%+%%%%+%%%%+%%%%+%%%%%%+%%%%%+XXXX  X XXX",
"XXXXXX  $$X+%%%%%+%%%%%%+%%%+%%+%%%+%%%+%%%%%%+%%%%%+XXXX     XX",
"XXXXXX $XXX+%%%%%+%%%%%%+%%+%%%+%%%%+%%+%%%%%%+%%%%%+XXX  XX    ",
"XXXXX  XXXX+%%%%++%%%%%%%++%%%%+%%%%%++%%%%%%%++%%%%+XXX XXXXXX ",
"XXXXX XXXXX+%%%+X+%%%%%%%%%%%%%+%+%%%%%%%%%%%%+X+%%%+XX  XXXXXXX",
"XXXX  XXXXX+%%%+XX+%%%%%%%%%%%%+%%%%%%%%%%%%%+XX+%%%+XX XXXXXXXX",
"XXX   XXXXX+%%+XXX+%%%%%%%%%%%%+%%%%%%%%%%%%%+XXX+%%+X  XXXXXXXX",
"XX      XXX+%,>XXXX+%%%%%%%%%%%+%+%%%%%%%%%%+XXXX>,%+  XXXXXXXXX",
"   $$$   XX>,,,>XXX +%%%%%%%%%%+%%%%%%%%%%%+    >,,,> XXXXXXXXXX",
" $$XXXXX  X>,,,>    =%%%%%%%%%%+%+%%%%%%%%%= XXX>,,,> XXXXXXXXXX",
"$XXXXXXXX  >,,,>XXX =--%%%%%%%%+%%%%%%%%%--=XXXX>,,,> XXXXXXXXXX",
"XXXXXXXXX  X>>>XXXXX=----%%%%%%+%%%%%%%----=XXXXX>>>X  XXXXXXXXX",
"XXXXXXXXXX XXXXXXXXX=----------------------=XXXXXXXXXX  XXXXXXXX",
"XXXXXXXXXX XXXXXXXXX=--------======--------=XXXXXXXXXXX  XXXXX  ",
"XXXXXXXXXX XXXXXXXXXX=------=XXXXXX=------=XXXXXXXXXXXXX  XXX  X",
"XXXXXXXXXX XXXXXXXXXX=-----=XXXXXXXX=-----=XXXXXXXXXXXXXX  X  XX",
"XXXXXXXXXX XXXXXXXXXXX=----=   XXXXX=----=XXXXXXXXXXXXXXXX   XXX",
"XXXXXXXXXX X XXXXXXXXXX=--=XX        =--=XXXXXXXXXXXXXXXXXX  XXX",
"XXXXXXXXX  XX XXXXXXXXXo###oXXXXXX  o###oXXXXXXXXXXXXXXXXXXX  XX",
"XXXXXXXXX   XX XXXXXXXo####oXXXXXXXXo####oXXXXXXXXXXXXXXXXXXX  X",
"XXXXXXXX      XXXXXXXo####oXXXXXXXXX o####oXXXXXXXXXXXXXXXXXX   ",
"XXXXXXX  XXXX         ooooXXXXXXXXXXXXooooXXXXXXXXXXXXXXXXXX  X ",
"XXXXXX  XXXXXXXXXXXXXX  XX   XXXXXXXXXX  XXXXXXXXXXXXXXXXXX  XX ",
"       XXXXXXXXXXXXXXXX  XXXXXXXXXXXXXXX                        "
};
