/* XPM */
static char *_31a39725a0a403dc28a94f038d38fb3JnIZvTwOGd360WL0[] = {
/* columns rows colors chars-per-pixel */
"64 64 15 1 ",
"  c #2C1515",
". c #3F2832",
"X c #743F39",
"o c #607C7C",
"O c #962727",
"+ c #BE2828",
"@ c #8C501C",
"# c #B86F50",
"$ c #B97D77",
"% c #D9B166",
"& c #E4A672",
"* c #BBBBBB",
"= c #EDB8B2",
"- c #AAD3D3",
"; c white",
/* pixels */
".....&&####XXXXXXXXXXXXXX.XX..XXXXXXXXXXXXXXXX.XXXXXXXXXXXXXXXXX",
".....&&####XXXXXXXXXXXXXXX...XXX.XXXXXXXXXXXXX..XXXXXXXXXXXXXXXX",
"...&&&###XXXXXXXXXXXXXXXXXX.XXX.XXXXXXXXXXXXXXX..XXXXXXXXXXXXX..",
"..&&###XXXXXXXXXXXXXXXXXXXX.XX.XXXXXXXXXXXXXXXXX.XXXXXXXXXXX...X",
".&&###XXXXXXXXXXXXXXXXXXXXX.XX.XXXXXXXXXXXXXXXXX..XXXXXXXXX..XXX",
".&###XXXXXXXXXXXXXXXXXXXX       XXXXXXXXXXXXXXX......XXXXX..XXXX",
".###XXXXXXXXXXXXXXXXXX   ooooooo   XXXXXXXXXX...XXXX...XXX.XXXXX",
".##XXXXXXXXXXXXXXXX   ooooooooooooo   XXXXXX..XXXXXXXX.....XXXXX",
".#XXXXXXXXXXXXXXXX ooooooooooooooooooo XXX...XXXXXXXXXXX...XXXXX",
".XXXXXXXXXXXXXXXX oooooooooooooooo----o ....XXXXXXXXXXXXX..XXXXX",
".XXXXXXXXXXXXXXX oooooooooooooooooo----o ..XXXXXXXXXXXXXX..XXXXX",
".XXXXXXXXXXXXXXX ooooooooooooooooooo---o X.XXXXXXXXXXXXXXX.XXXXX",
".XXXXXXXXXXXXXX ooooooooooooooooooooo--oo .XXXXXXXXXXXXXXX.XXXXX",
"..XXXXXXXX  XXX oooooooooooooooooooooo-oo .XXXXXXXXXXXXXXX.XXXXX",
"X...XXXXXX o X ooooooooooooooooooooooooooo .XXXXXXXXXXXXXX..XXXX",
"XXX..XXXXX oo   oooooooooooooooooooooooooo .XXXXXXXXXXXXXX...XXX",
"XXXX...XXX ooooo ooooooooooooooooooooooooo ..XXXXXXXXXXXX..X..XX",
"XXXXXX..XX ooooo oooooooooooooooooooooooooo .XXXXXXXXXXX..XXX..X",
"XXXXXXX... ooooo oooooooooooooooooooooooooo ..XXXXXXXXX..XXXXX..",
"XXXXXXXXX. ooooo oooooooooooooooooooooooooo ...XXXXXXX..XXXXXXXX",
"XXXXXXXXXX oo   ooooooooooooooooooooooooooo ...........XXXXXXXXX",
"XXXXXXXXXX o X oooooooooooooooooooooooooooo .XXXXXXX..XXXXXXXXXX",
"XXXXXXXXXX  XX ooooooooooooooooooooo       .XXXXXXXXX.XXXXXXXXXX",
"XXXXXXXXXX..XX                      ;;;;; .XXXXXXXXXX..XXXXXXXXX",
"XXXXXXXXXX..XXX =;;;;;;;;;;;;;;;;; ;;;;;; XXXXXXXXXXXX.XXXXXXXXX",
"XXXXXXXXX...... ===;;;;;;;;;;;;;;;; ;;;;; XXXXXXXXXXXX..XXXXXXXX",
"XXXXXXXX..##XX =======;;;;;;;;;;;;;; ;;; XXXXXXXXXXXXXX.XXXXXXXX",
"XXXXXXX..##XX ============;;;;;;;;;;; ++ XXXXXXXXXXXX.X..XXXXXXX",
"XXXXXX..#XXXX ===$===========***      +++ XXXXXXXXXXX.X....XXXXX",
"XXXXX..#XXXXXX $$============;;; +++++++++ XXXXXXXXX.XX.XX..XXXX",
"XXXX..#XXXXXX ;;;;==========;;;; ++++++++++ XXXXXXXXXX..XXX...XX",
"XXX..XXXXXXXX ;;;;;========;;;;; ++++++++++ ...........XXXX.....",
"XXX.XXXXXXXXX  **;;;=====;;;;;; ++++++++++++ XXXXXXXXX..XX..XXXX",
"X...XXXXXXXXXX ;;*;;;;;;;;;;;;; +++ ++++++++ XXXXXXXXXX....XXXXX",
"...XXXXXXXXXXX ;;;*;*;;;;;;;;; +++++ +++++++ XXXXXXXXXXXX..XXXXX",
"XX..X.XXXXXXXX ;;;;**;;;;;;;; ++++++ +++++++ XXXXXXXXXXXX..XXXXX",
"XXX.XX..XXXXXX ;;;;;;;;;;;;; ++++++++ ++++++ XXXXXXXXXXXXX.XXXXX",
"XXX..XXX.XXXXXX ;;;;;;;;;;  +++++++++ ++++++ XXXXXXXXXXXXX.XXXXX",
"XXXX..XXXXXXXXXX ;;;;;;   +++++++++++ ++++++ XXXXXXXXXXXXX..XXXX",
"XXXXX..XX........      O+++++++++++++ ++++++ XXXXXXXXXXXX....XXX",
"XXXXXX....#XXXXXXXX. ++O+++++++ +++++ ++++++ XXXXXXXXXXXX..X.XXX",
"XXXXXX..##XXXXXXXXXX ++O++++++++ ++++ ++++++ XXXXXXXXXXXX.....XX",
"XXXXXX.#XXXXXXXXXXXX +O+++++++++ ++++ ++++++ XXXXXXXXXXX..XX....",
"XXXXX..XXXXXXXXXXXXX O++++++++++ ++++ ++++++ XXXXXXXXXXX.XXXXXX.",
"XXXXX.XXXXXXXXXXXXXX +++++++++++ +++ ++++++ XXXXXXXXXXX..XXXXXXX",
"XXXX..XXXXXXXXXXXXXX +++++++++++ +++ ++++++ XXXXXXXXXXX.XXXXXXXX",
"XXX...XXXXXXXXXXXXXX +++++++++++ ++ ++++++ XXXXXXXXXXX..XXXXXXXX",
"XX......XXXXXXXXXXXX +++++++++++ ++ ++++++ ..XXXXXXXX..XXXXXXXXX",
"...###...XXXXXXXXXX.. +++++++++ === +++++ XX......XXX.XXXXXXXXXX",
".##XXXXXX.XXX........X ++++++++ === ++++ XX..XXXX.....XXXXXXXXXX",
"#XXXXXXXX.....#XXXX..XX  ++++++ === +++% X..XXXXXXXX..XXXXXXXXXX",
"XXXXXXXXX..###XXXXXX..XXX  +++++   ++%% X..XXXXXXXXXX..XXXXXXXXX",
"XXXXXXXXXX.#XXXXXXXXX..XXXX %%%%%%%%%% X..XXXXXXXXXXXX..XXXXXXXX",
"XXXXXXXXXX.XXXXXXXXXX..XXXX %%%%%%%%%% ..XXXXXXXXXXXXXX..XXXXX..",
"XXXXXXXXXX.XXXXXXXXXXX..XXXX %%%%%%%% X.XXXXXXXXXXXXXXXX..XXX..X",
"XXXXXXXXXX.XXXXXXXXXXXX..XXX %%%%%%%% ..XXXXXXXXXXXXXXXXX..X..XX",
"XXXXXXXXXX.XXXXXXXXXXXX...... %%%%%% ..XXXXXXXXXXXXXXXXXXX...XXX",
"XXXXXXXXXX.X.XXXXXXXXXX.XXXXX. %%%% ..XXXXXXXXXXXXXXXXXXXXX..XXX",
"XXXXXXXXX..XX.XXXXXXXXX.XXXXXXX @@ ..XXXXXXXXXXXXXXXXXXXXXXX..XX",
"XXXXXXXXX...XX.XXXXXXX..XXXXXX @@@ X.XXXXXXXXXXXXXXXXXXXXXXXX..X",
"XXXXXXXX......XXXXXXXX.XXXXXX @@@@ X...XXX.XXXXXXXXXXXXXXXXXX...",
"XXXXXXX..&#XX..........XXXXXX      XXX..XXX.....XXXXXXXXXXXX..X.",
"XXXXXX..&##XXXXXXXXXXX..XXXXXXXXXXXXXXX..XXXXXXXXXXXXXXXXXX..XX.",
".......&&#XXXXXXXXXXXXX..XXXXXXXXXXXXXXX........................"
};
