/* XPM */
static char *_370842e389c4d9fce5bfe32225e886eqjTer50IvupMypHS[] = {
/* columns rows colors chars-per-pixel */
"64 64 14 1 ",
"  c black",
". c #3F2832",
"X c #743F39",
"o c #7A4620",
"O c #CF3116",
"+ c #8A582E",
"@ c #B86F50",
"# c #3F8846",
"$ c #F3C229",
"% c #D9B166",
"& c #E4A672",
"* c #5FCDE4",
"= c #EDB8B2",
"- c white",
/* pixels */
"...........................X..XXXXXXXXXXXXXXXX.XXXXXXXXXXXXXXXXX",
".....&&@@@@XXXXXXXXXXXXXXX...XXX.XXXXXXXXXXXXX..XXXXXXXXXXXXXXXX",
"...&&&@@@XXXXXXXXXXXXXXXXXX.XXX.XXXXXXXXXXXXXXX..XXXXXXXXXXXXX..",
"..&&@@@XXXXXXXXXXXXXXXXXXXX        XXXXXXXXXXXXX.XXXXXXXXXXX...X",
".&&@@@XXXXXXXXXXXXXXXXXX   $$$$$$$$   XXXXXXXXXX..XXXXXXXXX..XXX",
".&@@@XXXXXXXXXXXXXXXX   $$$$$$$$$$$$$$   XXXXXX......XXXXX..XXXX",
".@@@XXXXXXXXXXXXXXXX $$$$$$$$$$$$$$$$$$$$ XXX...XXXX...XXX.XXXXX",
".@@XXXXXXXXXXXXXXXX $$$$$$$$$$$$$$$$$$$$$$ X..XXXXXXXX.....XXXXX",
".@XXXXXXXXXXXXXXXX $$$$$$$$$$$$$$$$$$$$$$$$ .XXXXXXXXXXX...XXXXX",
".XXXXXXXXXXXXXXXXX $$$$$$$$$$$$$$$$$$$$$$$$ XXXXXXXXXXXXX..XXXXX",
".XXXXXXXXXXXXXXXX $$$$$$$$$$$$$$$$$$$$$$$$$$ XXXXXXXXXXXX..XXXXX",
".XXXXXXXXXXXXXXXX $$$$$$$$$$$$$$$$$$$$$$$$$$ XXXXXXXXXXXXX.XXXXX",
".XXXXXXXXXXXXXXX $$$$$$$$$$$      $$$$$$$$$$$ XXXXXXXXXXXX.XXXXX",
"..XXXXXXXXXXXXXX  $$$$$$$$$ oooooo $$$$$$$$$  XXXXXXXXXXXX.XXXXX",
"X...XXXXXXXXXXXX O    $$$$ oooooooo $$$$    O XXXXXXXXXXXX..XXXX",
"XXX..XXXXXXXXXX OOOOOO     oooooooo     OOOOOO XXXXXXXXXXX...XXX",
"XXXX...XXXXXXX.  OOOOOOOOO oo    oo OOOOOOOOO  XXXXXXXXXX..X..XX",
"XXXXXX..XXXX... $     OOOO o -*** o OOOO     $ XXXXXXXXX..XXX..X",
"XXXXXXX......X $$$$$$$     o **** o     $$$$$$$ XXXXXXX..XXXXX..",
"XXXXXXXXX..XX $$$$$$$$$$$$ oo    oo $$$$$$$$$$$$ XXXXX..XXXXXXXX",
"XXXXXXXXXX.XXX  $$$$$$$$$$$ oooooo $$$$$$$$$$$  .......XXXXXXXXX",
"XXXXXXXXXX.XXXXX     $$$$$$$      $$$$$$$     XXXXXX..XXXXXXXXXX",
"XXXXXXXXXX.XXXX -----                    ----- XXXXXX.XXXXXXXXXX",
"XXXXXXXXXX..XX ---------- ========== ---------- XXXXX..XXXXXXXXX",
"XXXXXXXXXX..X ---------  ==  ====  ==  --------- XXXXX.XXXXXXXXX",
"XXXXXXXXX... -------   === ======== ===   ------- XXXX..XXXXXXXX",
"XXXXXXXX..@         ====== ======== ======         XXXX.XXXXXXXX",
"XXXXXXX..@@XXXXX - ========        ======== - XXXXXXX.X..XXXXXXX",
"XXXXXX..@XXXXXXX - ========= ---- ========= - XXXXXXX.X....XXXXX",
"XXXXX..@XXXXXX   -- ======= ------ ======= --   XXXX.XX.XX..XXXX",
"XXXX..@XXXXXX ## -- ====== -------- ====== -- ## XXXXX..XXX...XX",
"XXX..XXXXXXXX ### --  === ---    --- ===  -- ### ......XXXX.....",
"XXX.XXXXXXXX #### ----    -  ----  -    ---- #### XXXX..XX..XXXX",
"X...XXXXXXXX #### -------  --------  ------- #### XXXXX....XXXXX",
"...XXXXXXXX ###### ------------------------ ###### XXXXXX..XXXXX",
"XX..X.XXXXX ###### ------------------------ ###### XXXXXX..XXXXX",
"XXX.XX..XXX ####### ---------------------- ####### XXXXXXX.XXXXX",
"XXX..XXX.XX ########  ------------------  ######## XXXXXXX.XXXXX",
"XXXX..XXXX ###########   ------------   ########### XXXXXX..XXXX",
"XXXXX..XX. ##### ###### #            # ###### ##### XXXXX....XXX",
"XXXXXX.... ##### ###### #### #### #### ###### ##### XXXXX..X.XXX",
"XXXXXX..@@ ####  ###### ### ###### ### ######  #### XXXXX.....XX",
"XXXXXX.@XX ### X ###### ## #### ### ## ###### X ### XXXX..XX....",
"XXXXX..XXX ### X #######  ##########  ####### X ### XXXX.XXXXXX.",
"XXXXX.XXXX    XXX ########################## XXX    XXX..XXXXXXX",
"XXXX..XXXX == XXX ############# ############ XXX == XXX.XXXXXXXX",
"XXX...XXXX == XXX ########################## XXX == XX..XXXXXXXX",
"XX......XX = XXXXX ############ ########### .XXXX = X..XXXXXXXXX",
"...@@@...XX  XXXXXX    ################    X.....  XX.XXXXXXXXXX",
".@@XXXXXX.XXX....... %%                %% X..XXXX.....XXXXXXXXXX",
"@XXXXXXXX.....@XXXX. %%%%%%%%%%%%%%%%%%%% ..XXXXXXXX..XXXXXXXXXX",
"XXXXXXXXX..@@@XXXXXX %%%%%%%%    %%%%%%%% .XXXXXXXXXX..XXXXXXXXX",
"XXXXXXXXXX.@XXXXXXXX %%%%%%% XXXX %%%%%%% XXXXXXXXXXXX..XXXXXXXX",
"XXXXXXXXXX.XXXXXXXXXX %%%%% XXXXXX %%%%% XXXXXXXXXXXXXX..XXXXX..",
"XXXXXXXXXX.XXXXXXXXXX %%%%% XXXXXX %%%%% XXXXXXXXXXXXXXX..XXX..X",
"XXXXXXXXXX.XXXXXXXXXXX %%%% XXXXXX %%%% XXXXXXXXXXXXXXXXX..X..XX",
"XXXXXXXXXX.XXXXXXXXXXXX    ....XXXX    XXXXXXXXXXXXXXXXXXX...XXX",
"XXXXXXXXXX.X.XXXXXXXXX +++ XX...... +++ XXXXXXXXXXXXXXXXXXX..XXX",
"XXXXXXXXX..XX.XXXXXXX ++++ XXXXXXX. ++++ XXXXXXXXXXXXXXXXXXX..XX",
"XXXXXXXXX...XX.XXXXXX +++ XXXXXXXXXX +++ XXXXXXXXXXXXXXXXXXXX..X",
"XXXXXXXX......XXXXXXXX   XXXXXXXXXXX.   XX.XXXXXXXXXXXXXXXXXX...",
"XXXXXXX..XXXX..........XXXXXXXXXXXXXXX..XXX.....XXXXXXXXXXXX..X.",
"XXXXXX..XXXXXXXXXXXXXX..XXXXXXXXXXXXXXX..XXXXXXXXXXXXXXXXXX..XX.",
".......XXXXXXXXXXXXXXXX..XXXXXXXXXXXXXXX........................"
};
