/* XPM */
static char *_8f6d0b1536547aab000c4e19befb128wSdpsIHuLjHiKg80[] = {
/* columns rows colors chars-per-pixel */
"64 64 16 1 ",
"  c black",
". c #2C1515",
"X c #3F2832",
"o c #743F39",
"O c #607C7C",
"+ c #962727",
"@ c #BE2828",
"# c #8C501C",
"$ c #B86F50",
"% c #B97D77",
"& c #D9B166",
"* c #E4A672",
"= c #BBBBBB",
"- c #EDB8B2",
"; c #AAD3D3",
": c white",
/* pixels */
"XXXXX**$$$$ooooooooooooooXooXXooooooooooooooooXooooooooooooooooo",
"XXXXX**$$$$oooooooooooooooXXXoooXoooooooooooooXXoooooooooooooooo",
"XXX***$$$ooooooooooooooooooXoooXoooooooooooooooXXoooooooooooooXX",
"XX**$$$ooooooooooooooooooooXooXoooooooooooooooooXoooooooooo XXXo",
"X**$$$oooooooooooooooooooooXooXoooooooooooooooooXXoooooooooXXooo",
"X*$$$ooooooooooooooooooooooXoooo.......ooooooooXXXXXXoooooXXoooo",
"X$$$oooooooooooooooooooooooXo...OOOOOOO...oooXXXooooXXXoooXooooo",
"X$$ooooooooooooooooooooooo...OOOOOOOOOOOOO...XooooooooXXXXXooooo",
"X$ooooooooooooooooooooooo.OOOOOOOOOOOOOOOOOOO.ooooooooooXXXooooo",
"Xooooooooooooooooooooooo.O;;;;OOOOOOOOOOOOOOOO.ooooooooooXXooooo",
"Xoooooooooooooooooooooo.O;;;;OOOOOOOOOOOOOOOOOO.oooooooooXXooooo",
"Xoooooooooooooooooooooo.O;;;OOOOOOOOOOOOOOOOOOO.ooooooooooXooooo",
"XoooooooooooooooooooXX.OO;;OOOOOOOOOOOOOOOOOOOOO.oooooooooXooooo",
"XXoooooooooooooooooXXo.OO;OOOOOOOOOOOOOOOOOOOOOO.ooo..ooooXooooo",
"oXXXooooooooooooooXXo.OOOOOOOOOOOOOOOOOOOOOOOOOOO.o.O.ooooXXoooo",
"oooXXoooooooooooXXXoo.OOOOOOOOOOOOOOOOOOOOOOOOOO...OO.ooooXXXooo",
"ooooXXXoooooooXXXoooo.OOOOOOOOOOOOOOOOOOOOOOOOO.OOOOO.oooXXoXXoo",
"ooooooXXooooXXXooooo.OOOOOOOOOOOOOOOOOOOOOOOOOO.OOOOO.ooXXoooXXo",
"oooooooXXXXXXooooooo.OOOOOOOOOOOOOOOOOOOOOOOOOO.OOOOO.oXXoooooXX",
"oooooooooXXooooooooo.OOOOOOOOOOOOOOOOOOOOOOOOOO.OOOOO.XXoooooooo",
"ooooooooooXooooooooo.OOOOOOOOOOOOOOOOOOOOOOOOOOO...OO.Xooooooooo",
"ooooooooooXooooooooo.OOOOOOOOOOOOOOOOOOOOOOOOOOOO.o.O.oooooooooo",
"ooooooooooXoooooooooo.......OOOOOOOOOOOOOOOOOOOOO.oo..oooooooooo",
"ooooooooooXXoooooooooo.:::::......................oooXXooooooooo",
"ooooooooooXXoooooooooo.::::::.:::::::::::::::::-.oooooXooooooooo",
"oooooooooXXXXXXXXXXooo.:::::.::::::::::::::::---.oooooXXoooooooo",
"ooooooooXX$$ooooooXXXXX.:::.::::::::::::::-------.oooooXoooooooo",
"oooooooXX$$oooooooooXXX.@@.:::::::::::------------.ooXoXXooooooo",
"ooooooXX$ooooooooooooX.@@@......===-----------%---.ooXoXXXXooooo",
"oooooXX$ooooooooooooo.@@@@@@@@@.:::------------%%.ooXooXooXXoooo",
"ooooXX$ooooooooooooo.@@@@@@@@@@.::::----------::::.oooXXoooXXXoo",
"oooXXooooooooooooooo.@@@@@@@@@@.:::::--------:::::.XXXXooooXXXXX",
"oooXooooooooooooooo.@@@@@@@@@@@@.::::::-----:::==..oooXXooXXoooo",
"oXXXooooooooooooooo.@@@@@@@@.@@@.:::::::::::::=::.oooooXXXXooooo",
"XXXoooooooooooooooo.@@@@@@@.@@@@@.:::::::::=:=:::.oooooooXXooooo",
"ooXXoXooooooooooooo.@@@@@@@.@@@@@@.::::::::==::::.oooooooXXooooo",
"oooXooXXooooooooooo.@@@@@@.@@@@@@@@.:::::::::::::.ooooooooXooooo",
"oooXXoooXoooooooooo.@@@@@@.@@@@@@@@@..::::::::::.oooooooooXooooo",
"ooooXXooooooooooooX.@@@@@@.@@@@@@@@@@@...::::::.ooooooooooXXoooo",
"oooooXXooXXXXXXXXXX.@@@@@@.@@@@@@@@@@@@@+......ooooooooooXXXXooo",
"ooooooXXXX$oooooooo.@@@@@@.@@@@@.@@@@@@@+@@.oooooooooooooXXoXooo",
"ooooooXX$$ooooooooo.@@@@@@.@@@@.@@@@@@@@+@@.oooooooooooooXXXXXoo",
"ooooooX$ooooooooooo.@@@@@@.@@@@.@@@@@@@@@+@.ooooooooooooXXooXXXX",
"oooooXXoooooooooooo.@@@@@@.@@@@.@@@@@@@@@@+.ooooooooooooXooooooX",
"oooooXoooooooooooooo.@@@@@@.@@@.@@@@@@@@@@@.oooooooooooXXooooooo",
"ooooXXoooooooooooooo.@@@@@@.@@@.@@@@@@@@@@@.oooooooooooXoooooooo",
"oooXXXooooooooooooooX.@@@@@@.@@.@@@@@@@@@@@.ooooooooooXXoooooooo",
"ooXXXXXXooooooooooooX.@@@@@@.@@.@@@@@@@@@@@.XooooooooXXooooooooo",
"XXX$$$XXXooooooooooXXo.@@@@@.---.@@@@@@@@@.oXXXXXXoooXoooooooooo",
"X$$ooooooXoooXXXXXXXXoo.@@@@.---.@@@@@@@@.oXXooooXXXXXoooooooooo",
"$ooooooooXXXXX$ooooXXoo.&@@@.---.@@@@@@..oXXooooooooXXoooooooooo",
"oooooooooXX$$$ooooooXXoo.&&@@...@@@@@..ooXXooooooooooXXooooooooo",
"ooooooooooX$oooooooooXXoo.&&&&&&&&&&.oooXXooooooooooooXXoooooooo",
"ooooooooooXooooooooooXXoo.&&&&&&&&&&.ooXXooooooooooooooXXoooooXX",
"ooooooooooXoooooooooooXXoo.&&&&&&&&.oooXooooooooooooooooXXoooXXo",
"ooooooooooXooooooooooooXXo.&&&&&&&&.ooXXoooooooooooooooooXXoXXoo",
"ooooooooooXooooooooooooXXXX.&&&&&&.oXXXoooooooooooooooooooXXXooo",
"ooooooooooXoXooooooooooXoooo.&&&&.XXXXoooooooooooooooooooooXXooo",
"oooooooooXXooXoooooooooXooooo.##.oXXXoooooooooooooooooooooooXXoo",
"oooooooooXXXooXoooooooXXooooo.###.ooXooooooooooooooooooooooooXXo",
"ooooooooXXXXXXooooooooXoooooo.####.oXXXoooXooooooooooooooooooXXX",
"oooooooXX*$ooXXXXXXXXXXoooooo......oooXXoooXXXXXooooooooooooXXoX",
"ooooooXX*$$oooooooooooXXoooooooooooooooXXooooooooooooooooooXXooX",
"XXXXXXX**$oooooooooooooXXoooooooooooooooXXXXXXXXXXXXXXXXXXXXXXXX"
};
